<svg width="30" height="30" viewBox="0 0 30 30" fill="none" xmlns="http://www.w3.org/2000/svg">
<path d="M26.25 14.6875C26.1939 14.9191 26.0829 15.1338 25.9262 15.3133C25.7695 15.4928 25.5719 15.6319 25.35 15.7188C25.3 15.7188 25.2687 15.8625 25.2625 15.9375C25.2625 16.4625 25.2625 16.9938 25.1937 17.5188C25.0928 18.4148 24.8302 19.2852 24.4187 20.0875C24.4051 20.1338 24.3817 20.1766 24.3502 20.2131C24.3186 20.2496 24.2796 20.2789 24.2358 20.299C24.192 20.3191 24.1443 20.3296 24.0961 20.3298C24.0479 20.33 24.0002 20.3198 23.9562 20.3C23.775 20.2188 23.7187 20.025 23.8312 19.7938C24.2277 19.0137 24.4716 18.1652 24.5499 17.2937C24.5937 16.8 24.5499 16.3 24.5499 15.7938H5.43745C5.4093 16.2683 5.4093 16.7442 5.43745 17.2188C5.53732 18.3392 5.89723 19.4209 6.48855 20.3779C7.07986 21.3349 7.88629 22.1407 8.8437 22.7312C9.95999 23.4588 11.2613 23.8513 12.5937 23.8625C14.1625 23.8625 15.7187 23.8625 17.3 23.8625C18.3506 23.8604 19.388 23.6283 20.3392 23.1823C21.2905 22.7364 22.1326 22.0875 22.8062 21.2812L22.9375 21.1313C23.1 20.9438 23.3 20.9062 23.45 21.0312C23.6 21.1563 23.6062 21.3563 23.45 21.5563C22.3906 22.8723 20.9389 23.8159 19.3062 24.25L19.0875 24.3125C19.0801 24.5217 19.0613 24.7303 19.0312 24.9375C18.9643 25.2983 18.7758 25.6252 18.4972 25.864C18.2187 26.1028 17.8667 26.239 17.5 26.25C15.825 26.25 14.1562 26.25 12.5 26.25C12.0856 26.2359 11.6923 26.0646 11.3997 25.7709C11.1072 25.4772 10.9374 25.0831 10.925 24.6688C10.925 24.5563 10.925 24.45 10.925 24.3812C10.3427 24.1839 9.77111 23.9566 9.21245 23.7C8.01195 23.1162 6.98017 22.2358 6.21464 21.1422C5.4491 20.0486 4.9751 18.7778 4.83745 17.45C4.77495 16.9563 4.79995 16.4563 4.7687 15.9563C4.76358 15.8722 4.72538 15.7935 4.66245 15.7375C4.37136 15.6283 4.1269 15.4219 3.97037 15.1532C3.81384 14.8846 3.75483 14.5701 3.80333 14.263C3.85182 13.9559 4.00483 13.675 4.23652 13.4676C4.4682 13.2603 4.76436 13.1392 5.07495 13.125C5.05341 13.0612 5.02837 12.9986 4.99995 12.9375C4.45199 12.2595 4.07048 11.4626 3.88597 10.6106C3.70146 9.75858 3.71909 8.87521 3.93745 8.03125C3.96945 7.87753 4.04565 7.7365 4.15667 7.62547C4.2677 7.51444 4.40873 7.43825 4.56245 7.40625C5.30628 7.21291 6.08184 7.17406 6.84127 7.29208C7.6007 7.4101 8.32789 7.68249 8.97797 8.09245C9.62804 8.5024 10.1872 9.04123 10.621 9.67567C11.0547 10.3101 11.3539 11.0267 11.5 11.7812C11.5625 12.0938 11.5812 12.4062 11.625 12.7563C11.6937 12.7 11.75 12.6562 11.8 12.6062C12.5583 11.8938 13.3166 11.1833 14.075 10.475C14.114 10.4305 14.1581 10.3907 14.2062 10.3562C14.2702 10.3044 14.352 10.28 14.4339 10.2882C14.5159 10.2964 14.5912 10.3365 14.6437 10.4C14.6983 10.456 14.7288 10.5312 14.7288 10.6094C14.7288 10.6876 14.6983 10.7627 14.6437 10.8187C14.6006 10.8712 14.5524 10.9194 14.5 10.9625L12.3687 12.9562C12.3312 13 12.2812 13.025 12.2562 13.1062H12.4375C13.3187 13.1062 14.1937 13.1062 15.075 13.1062C15.1934 13.1017 15.3064 13.0552 15.3937 12.975C16.0062 12.3746 16.4503 11.6239 16.6817 10.798C16.9132 9.97216 16.9238 9.1 16.7125 8.26875C16.7053 8.20865 16.6789 8.15246 16.6372 8.10855C16.5956 8.06463 16.5408 8.03533 16.4812 8.025C15.704 7.8306 14.8911 7.82801 14.1127 8.01745C13.3342 8.2069 12.6134 8.5827 12.0125 9.1125L11.8125 9.2875C11.7821 9.31907 11.7457 9.34419 11.7055 9.36135C11.6652 9.3785 11.6219 9.38735 11.5781 9.38735C11.5343 9.38735 11.491 9.3785 11.4507 9.36135C11.4104 9.34419 11.374 9.31907 11.3437 9.2875C11.3101 9.25594 11.2839 9.21734 11.267 9.17446C11.2501 9.13159 11.2429 9.0855 11.2458 9.03951C11.2488 8.99351 11.262 8.94875 11.2843 8.90842C11.3066 8.86809 11.3376 8.8332 11.375 8.80625C11.813 8.374 12.3226 8.02087 12.8812 7.7625C14.0651 7.20391 15.4067 7.07571 16.675 7.4C16.8407 7.42906 16.9936 7.50809 17.1131 7.62651C17.2326 7.74492 17.3131 7.89705 17.3437 8.0625C17.3812 8.24375 17.4187 8.41875 17.4687 8.6375C18.408 7.70215 19.2967 6.71742 20.1312 5.6875C20.035 5.45079 19.9597 5.2061 19.9062 4.95625C19.8785 4.70637 19.9397 4.45471 20.0792 4.24552C20.2186 4.03634 20.4274 3.88301 20.6687 3.8125L20.7999 3.75H21.25C21.5603 3.85992 21.8362 4.04961 22.0499 4.3C23.2416 5.5 24.4333 6.7 25.625 7.9C25.9032 8.12455 26.1186 8.41741 26.25 8.75V9.15L26.175 9.35C26.1007 9.55753 25.9655 9.7378 25.7871 9.86717C25.6086 9.99654 25.3953 10.069 25.1749 10.075C24.8852 10.0809 24.6024 9.98587 24.375 9.80625C23.1179 10.8132 21.9472 11.9233 20.875 13.125H24.875C25.1777 13.1144 25.475 13.2078 25.7173 13.3898C25.9595 13.5717 26.1321 13.8312 26.2062 14.125L26.25 14.2188V14.6875ZM24.7562 15.1312H24.95C25.1123 15.118 25.2646 15.047 25.3792 14.9312C25.4937 14.8153 25.5629 14.6622 25.5743 14.4997C25.5856 14.3371 25.5383 14.1759 25.441 14.0452C25.3436 13.9146 25.2027 13.8231 25.0437 13.7875C24.9502 13.778 24.856 13.778 24.7625 13.7875H5.2812C5.2062 13.7875 5.13745 13.7875 5.06245 13.7875C4.90749 13.8012 4.76162 13.8665 4.64827 13.9731C4.53492 14.0796 4.46067 14.2212 4.43745 14.375C4.41574 14.5327 4.45102 14.693 4.53695 14.8271C4.62288 14.9611 4.75381 15.0601 4.9062 15.1062C5.02642 15.1379 5.15083 15.1505 5.27495 15.1437M20.625 6.125L20.4437 6.3375C19.5844 7.41583 18.6487 8.43095 17.6437 9.375C17.5807 9.45055 17.5454 9.54538 17.5437 9.64375C17.4968 10.8215 17.0839 11.9554 16.3625 12.8875L16.225 13.075H16.2812C17.4875 13.075 18.6937 13.075 19.9 13.075C19.9387 13.0718 19.9765 13.0607 20.0109 13.0424C20.0452 13.0241 20.0755 12.9991 20.1 12.9688C21.1824 11.6988 22.3837 10.5352 23.6875 9.49375L23.875 9.325L20.625 6.125ZM9.07495 13.125C8.2937 12.3938 7.5562 11.7063 6.82495 11.0125C6.74926 10.9555 6.68193 10.8882 6.62495 10.8125C6.57531 10.7565 6.54789 10.6842 6.54789 10.6094C6.54789 10.5345 6.57531 10.4623 6.62495 10.4062C6.67504 10.3462 6.74585 10.307 6.82338 10.2966C6.90091 10.2862 6.97953 10.3053 7.0437 10.35C7.11601 10.4015 7.18301 10.4602 7.2437 10.525L9.8687 12.9875C9.9312 13.0375 9.9937 13.1125 10.0625 13.1187C10.3437 13.1187 10.625 13.1187 10.975 13.1187C10.9187 12.6438 10.9 12.2 10.8062 11.7688C10.6659 11.1226 10.3974 10.5112 10.0166 9.97064C9.63586 9.4301 9.15051 8.97143 8.58933 8.62178C8.02815 8.27214 7.40253 8.03861 6.74949 7.93503C6.09646 7.83145 5.42929 7.85992 4.78745 8.01875C4.6687 8.05 4.5812 8.08125 4.54995 8.23125C4.32805 9.07816 4.33741 9.9691 4.57705 10.8112C4.8167 11.6532 5.27786 12.4156 5.91245 13.0188C5.95684 13.0666 6.0165 13.0976 6.0812 13.1062C7.0687 13.125 8.0437 13.125 9.07495 13.125ZM18.45 24.5062C16.1625 24.575 13.8937 24.5812 11.6187 24.5062C11.6008 24.6436 11.6126 24.7831 11.6532 24.9155C11.6938 25.0478 11.7624 25.17 11.8542 25.2736C11.946 25.3772 12.0589 25.46 12.1854 25.5163C12.3119 25.5726 12.449 25.6012 12.5875 25.6C14.2166 25.6 15.8479 25.6 17.4812 25.6C17.6188 25.5971 17.7543 25.5649 17.8785 25.5055C18.0027 25.4461 18.1128 25.361 18.2015 25.2557C18.2902 25.1505 18.3555 25.0275 18.3929 24.895C18.4304 24.7626 18.4392 24.6236 18.4187 24.4875L18.45 24.5062ZM25.0562 9.43125C25.325 9.43125 25.4687 9.33125 25.5437 9.15625C25.5878 9.06543 25.6 8.96243 25.5785 8.86381C25.5569 8.7652 25.5029 8.67668 25.425 8.6125L21.3937 4.58125C21.3566 4.52475 21.3076 4.47707 21.2501 4.44155C21.1926 4.40603 21.1281 4.38354 21.061 4.37566C20.9939 4.36778 20.9258 4.3747 20.8617 4.39593C20.7975 4.41717 20.7388 4.45221 20.6897 4.49858C20.6405 4.54495 20.6021 4.60153 20.5772 4.66434C20.5522 4.72714 20.5414 4.79465 20.5453 4.86211C20.5493 4.92957 20.568 4.99534 20.6001 5.0548C20.6322 5.11425 20.677 5.16595 20.7312 5.20625C22.075 6.55 23.4187 7.9 24.7687 9.2375C24.8534 9.3173 24.9505 9.38274 25.0562 9.43125Z" fill="#005D38"/>
<path d="M12.5624 22.7688C11.1422 22.726 9.77893 22.2007 8.69733 21.2793C7.61572 20.3579 6.88035 19.0954 6.61245 17.7C6.61245 17.5563 6.56245 17.4125 6.54995 17.2688C6.54286 17.2252 6.54456 17.1807 6.55493 17.1378C6.5653 17.0949 6.58414 17.0545 6.61034 17.0189C6.63654 16.9834 6.66957 16.9535 6.7075 16.9309C6.74543 16.9084 6.78749 16.8936 6.8312 16.8875C6.91624 16.8785 7.00146 16.9028 7.06903 16.9552C7.13659 17.0076 7.18126 17.0842 7.1937 17.1688C7.28921 17.6469 7.41445 18.1187 7.5687 18.5813C7.96969 19.6064 8.66614 20.4893 9.56967 21.118C10.4732 21.7467 11.5431 22.0928 12.6437 22.1125H12.7999C12.8679 22.1319 12.9276 22.1729 12.9701 22.2293C13.0127 22.2857 13.0357 22.3544 13.0357 22.425C13.0357 22.4956 13.0127 22.5643 12.9701 22.6207C12.9276 22.6771 12.8679 22.7181 12.7999 22.7375C12.7219 22.7549 12.6424 22.7654 12.5624 22.7688Z" fill="#005D38"/>
</svg>
