<svg width="48" height="48" viewBox="0 0 48 48" fill="none" xmlns="http://www.w3.org/2000/svg">
<path d="M21.43 10.35C21.24 9.83998 21.04 9.34998 20.89 8.90998C20.7647 8.51193 20.6744 8.10372 20.62 7.68998C20.5454 7.33808 20.6072 6.971 20.7928 6.66288C20.9784 6.35475 21.2741 6.12856 21.62 6.02998C22.4776 5.69999 23.3913 5.54035 24.31 5.55998C25.2959 5.51897 26.2806 5.66836 27.21 5.99998C28.09 6.33998 28.42 6.78998 28.27 7.69998C28.1078 8.44513 27.9008 9.1798 27.65 9.89998C27.65 10.04 27.54 10.17 27.47 10.35H28.47C28.7167 10.3472 28.9615 10.3941 29.1897 10.4879C29.4179 10.5817 29.6249 10.7204 29.7984 10.8958C29.972 11.0712 30.1085 11.2797 30.1998 11.5089C30.2911 11.7381 30.3354 11.9833 30.33 12.23C30.33 12.68 30.33 13.14 30.33 13.6C30.3624 13.8669 30.338 14.1377 30.2586 14.3945C30.1791 14.6514 30.0463 14.8886 29.8688 15.0906C29.6914 15.2926 29.4732 15.4549 29.2287 15.5668C28.9842 15.6787 28.7189 15.7377 28.45 15.74C28.45 16.38 28.45 17.04 28.45 17.74C28.45 17.81 28.56 17.92 28.64 17.95C30.6398 18.5695 32.4634 19.6561 33.96 21.12L34.44 20.69C34.4988 20.6132 34.5745 20.5511 34.6612 20.5083C34.7479 20.4655 34.8433 20.4433 34.94 20.4433C35.0367 20.4433 35.1321 20.4655 35.2188 20.5083C35.3055 20.5511 35.3812 20.6132 35.44 20.69C36.0309 21.1409 36.516 21.7156 36.8615 22.3737C37.207 23.0318 37.4044 23.7575 37.44 24.5C37.6801 24.4303 37.9238 24.3736 38.17 24.33C39.4717 24.1993 40.7756 24.5556 41.83 25.33C42.15 25.53 42.06 25.85 41.94 26.13C41.7028 26.8473 41.3033 27.5002 40.7726 28.0379C40.2418 28.5756 39.5942 28.9835 38.88 29.23C39.3175 29.8495 39.6049 30.5624 39.7194 31.3121C39.834 32.0619 39.7725 32.828 39.54 33.55C39.46 33.97 39.24 34.11 38.82 34.07L38.3 33.99H37.8C37.72 34.27 37.66 34.53 37.59 34.78C36.7334 37.8452 34.8207 40.5088 32.19 42.3C31.9403 42.4735 31.644 42.5676 31.34 42.57H17.51C17.2069 42.5618 16.9122 42.4682 16.66 42.3C15.5763 41.5691 14.606 40.683 13.78 39.67C13.6062 39.4921 13.4075 39.3405 13.19 39.22C12.67 38.88 12.19 38.56 11.6 38.22C11.2369 38.6326 10.791 38.9642 10.2914 39.1934C9.79181 39.4225 9.2496 39.544 8.69999 39.55C8.20999 39.55 7.99999 39.45 7.89999 38.97C7.73347 38.4177 7.68837 37.836 7.76777 37.2646C7.84716 36.6933 8.04919 36.1459 8.35999 35.66C7.82457 35.4608 7.34173 35.142 6.94832 34.7278C6.55491 34.3136 6.26133 33.8149 6.08999 33.27C6.04055 33.1963 6.00838 33.1123 5.99588 33.0245C5.98337 32.9366 5.99085 32.847 6.01776 32.7625C6.04468 32.6779 6.09033 32.6005 6.15131 32.536C6.2123 32.4715 6.28705 32.4216 6.36999 32.39C6.844 32.0652 7.3803 31.8424 7.94491 31.7357C8.50952 31.6289 9.09014 31.6406 9.64999 31.77C9.66946 31.007 9.94808 30.2735 10.44 29.69C10.7713 29.2873 10.9673 28.7904 11 28.27C11.452 25.8747 12.5413 23.6456 14.1533 21.8172C15.7653 19.9887 17.8403 18.6286 20.16 17.88L20.46 17.77V15.77C20.1552 15.7005 19.8573 15.6034 19.57 15.48C19.2764 15.3474 19.0266 15.1341 18.8495 14.865C18.6725 14.5959 18.5755 14.2821 18.57 13.96C18.57 13.35 18.57 12.75 18.57 12.14C18.5739 11.9001 18.6252 11.6634 18.7209 11.4434C18.8166 11.2234 18.9549 11.0245 19.1277 10.8582C19.3006 10.6918 19.5046 10.5613 19.7281 10.4741C19.9516 10.3868 20.1901 10.3447 20.43 10.35H21.43ZM15.22 39.46C15.8 39.96 16.45 40.52 17.11 41.07C17.2716 41.1829 17.4629 41.2455 17.66 41.25H31.2C31.3431 41.2539 31.4847 41.2194 31.61 41.15C34.1688 39.4161 35.9598 36.7617 36.61 33.74C36.61 33.64 36.61 33.45 36.5 33.42C35.8076 33.1085 35.2105 32.6184 34.77 32C34.3229 32.6212 33.7339 33.1267 33.0521 33.4746C32.3703 33.8224 31.6154 34.0025 30.85 34C30.7734 34.0158 30.6944 34.0153 30.618 33.9987C30.5416 33.9821 30.4695 33.9497 30.4064 33.9035C30.3432 33.8574 30.2905 33.7985 30.2515 33.7307C30.2125 33.6629 30.1882 33.5877 30.18 33.51C30.0939 33.0101 30.0338 32.5061 30 32C29.9135 30.9551 30.2162 29.9151 30.85 29.08L30.33 29H29.89C27.9196 28.7166 25.983 28.2341 24.11 27.56C20.5411 26.3427 16.7472 25.9295 13 26.35C12.8942 26.3458 12.7905 26.3799 12.7079 26.4461C12.6252 26.5122 12.5692 26.6059 12.55 26.71C12.41 27.24 12.27 27.78 12.11 28.3C12.0753 28.3997 12.0752 28.5081 12.1096 28.6079C12.1441 28.7077 12.2112 28.793 12.3 28.85C12.948 29.3866 13.4157 30.1091 13.64 30.92C13.69 31.15 13.72 31.38 13.77 31.63C14.3427 31.5034 14.9355 31.4976 15.5106 31.613C16.0857 31.7283 16.6304 31.9623 17.11 32.3C17.2344 32.3585 17.3306 32.464 17.3775 32.5934C17.4243 32.7227 17.4181 32.8653 17.36 32.99C17.0517 33.9465 16.4044 34.7574 15.54 35.27L15.05 35.52C15.3954 36.1138 15.5913 36.7827 15.6209 37.469C15.6506 38.1553 15.513 38.8386 15.22 39.46ZM13.22 25.13C13.39 25.13 13.54 25.13 13.7 25.13C16.6165 24.8634 19.5571 25.107 22.39 25.85C24.23 26.35 26.05 26.91 27.89 27.44C28.13 27.51 28.39 27.54 28.66 27.6C28.35 27.01 28.07 26.48 27.8 25.94C27.7542 25.8707 27.7246 25.7919 27.7136 25.7096C27.7026 25.6272 27.7103 25.5435 27.7363 25.4646C27.7623 25.3857 27.8058 25.3137 27.8636 25.254C27.9214 25.1943 27.992 25.1485 28.07 25.12C28.7665 24.7854 29.4848 24.4981 30.22 24.26C30.9377 24.0804 31.6939 24.1329 32.38 24.41C32.3747 23.5067 32.647 22.6235 33.16 21.88C31.7551 20.51 30.0483 19.4889 28.1769 18.8987C26.3055 18.3085 24.3217 18.1658 22.3851 18.4819C20.4484 18.798 18.613 19.5642 17.0264 20.7189C15.4398 21.8735 14.1463 23.3844 13.25 25.13H13.22ZM29 25.91C29.66 27.35 30.7 28.29 32.39 28.03C32.4642 28.0074 32.5422 28.0001 32.6193 28.0087C32.6964 28.0173 32.7709 28.0415 32.8383 28.0799C32.9057 28.1182 32.9646 28.17 33.0113 28.2319C33.058 28.2938 33.0916 28.3646 33.11 28.44C33.21 28.8 33.01 28.98 32.72 29.14C32.0853 29.4774 31.5928 30.0314 31.3322 30.7013C31.0716 31.3712 31.0602 32.1124 31.3 32.79C32.0191 32.7992 32.7175 32.5499 33.2682 32.0873C33.8188 31.6248 34.185 30.9799 34.3 30.27C34.36 29.94 34.53 29.7 34.87 29.7C35.21 29.7 35.38 29.96 35.44 30.28C35.5614 30.9844 35.9304 31.6222 36.4804 32.0787C37.0304 32.5352 37.7253 32.7804 38.44 32.77C38.82 31.07 38.29 29.64 36.92 29.09C36.8523 29.065 36.7906 29.0262 36.7387 28.9761C36.6869 28.9259 36.646 28.8656 36.6187 28.7988C36.5915 28.732 36.5784 28.6603 36.5803 28.5882C36.5823 28.5161 36.5992 28.4452 36.63 28.38C36.73 28.08 36.95 28 37.26 28.02C37.6618 28.0701 38.0682 28.0701 38.47 28.02C38.9681 27.8758 39.4239 27.6131 39.7983 27.2543C40.1727 26.8956 40.4547 26.4515 40.62 25.96C40.0504 25.5182 39.3407 25.2962 38.6209 25.3348C37.901 25.3734 37.2192 25.6698 36.7 26.17C36.6117 26.2906 36.4803 26.3725 36.3331 26.3986C36.1859 26.4247 36.0343 26.3929 35.91 26.31C35.8474 26.2687 35.7936 26.2153 35.752 26.1529C35.7104 26.0905 35.6818 26.0204 35.6678 25.9467C35.6538 25.873 35.6548 25.7973 35.6706 25.724C35.6864 25.6507 35.7168 25.5813 35.76 25.52C36.0783 24.8722 36.1524 24.1314 35.9687 23.4335C35.785 22.7355 35.3559 22.1272 34.76 21.72C34.1554 22.1149 33.7186 22.7198 33.5339 23.4179C33.3492 24.116 33.4298 24.8578 33.76 25.5C33.8062 25.5633 33.8388 25.6356 33.8558 25.7121C33.8728 25.7887 33.8738 25.8679 33.8588 25.9449C33.8438 26.0218 33.8131 26.0949 33.7685 26.1594C33.724 26.224 33.6666 26.2786 33.6 26.32C33.5426 26.3618 33.4774 26.3916 33.4082 26.4077C33.3391 26.4238 33.2674 26.4259 33.1975 26.4138C33.1275 26.4016 33.0607 26.3756 33.001 26.3371C32.9413 26.2987 32.89 26.2487 32.85 26.19C31.92 25.12 30.51 25 29 25.91ZM24.41 14.48H28.36C28.4689 14.4945 28.5797 14.4839 28.6839 14.449C28.7881 14.4141 28.8829 14.3558 28.9611 14.2786C29.0393 14.2013 29.0988 14.1073 29.135 14.0035C29.1712 13.8997 29.1832 13.7891 29.17 13.68C29.17 13.1666 29.17 12.6566 29.17 12.15C29.1812 12.0413 29.1679 11.9315 29.131 11.8286C29.0941 11.7258 29.0345 11.6325 28.9568 11.5558C28.8791 11.479 28.7851 11.4206 28.6818 11.385C28.5785 11.3494 28.4685 11.3374 28.36 11.35H20.49C19.95 11.35 19.69 11.64 19.68 12.19V13.6C19.68 14.23 19.95 14.48 20.57 14.48H24.41ZM16.05 33.05C15.6233 32.7497 15.1041 32.61 14.5843 32.6558C14.0645 32.7015 13.5777 32.9297 13.21 33.3C13.1237 33.4072 12.9984 33.4759 12.8615 33.4909C12.7247 33.5059 12.5875 33.466 12.48 33.38C12.4167 33.3379 12.3626 33.2835 12.3211 33.2199C12.2795 33.1563 12.2513 33.0849 12.2382 33.01C12.2251 32.9352 12.2274 32.8585 12.2449 32.7845C12.2624 32.7106 12.2947 32.641 12.34 32.58C12.5725 32.1199 12.6327 31.5917 12.5098 31.0911C12.387 30.5904 12.0891 30.1502 11.67 29.85C11.2542 30.1575 10.9594 30.6012 10.837 31.1036C10.7146 31.6061 10.7722 32.1356 11 32.6C11.0703 32.7133 11.0953 32.849 11.07 32.98C11 33.16 10.87 33.4 10.73 33.43C10.5028 33.4567 10.274 33.3959 10.09 33.26C9.71721 32.9087 9.23355 32.6985 8.72241 32.6657C8.21127 32.6328 7.70468 32.7793 7.28999 33.08C7.45078 33.5695 7.78358 33.9842 8.22671 34.2471C8.66985 34.5101 9.19327 34.6034 9.69999 34.51C9.84583 34.4735 10.0002 34.4962 10.1294 34.5729C10.2586 34.6497 10.3523 34.7745 10.39 34.92C10.51 35.27 10.31 35.46 10.01 35.62C9.55515 35.8544 9.20211 36.2476 9.0178 36.7249C8.83349 37.2023 8.83071 37.7307 9.00999 38.21C9.56104 38.1689 10.0871 37.9634 10.52 37.62C10.8827 37.2913 11.1077 36.8376 11.15 36.35C11.15 36.2058 11.2065 36.0674 11.3075 35.9646C11.4085 35.8617 11.5459 35.8026 11.69 35.8C12.05 35.8 12.21 36.04 12.28 36.35C12.28 36.42 12.28 36.49 12.28 36.55C12.3877 37.0301 12.6614 37.4569 13.0529 37.755C13.4444 38.0532 13.9285 38.2037 14.42 38.18C14.5841 37.6759 14.5553 37.1289 14.3392 36.6448C14.123 36.1608 13.7349 35.7742 13.25 35.56C13.1255 35.5011 13.0282 35.3969 12.978 35.2686C12.9278 35.1403 12.9285 34.9977 12.98 34.87C13.1 34.54 13.34 34.48 13.66 34.52C14.1693 34.6105 14.6941 34.5108 15.1347 34.2398C15.5754 33.9688 15.9011 33.5454 16.05 33.05ZM24.41 10.23C24.91 10.23 25.41 10.23 25.9 10.23C25.968 10.2277 26.0347 10.2104 26.0952 10.1793C26.1557 10.1482 26.2086 10.104 26.25 10.05C26.56 9.27998 26.88 8.50998 27.12 7.71998C27.27 7.21998 27.12 7.05998 26.66 6.91998C25.1772 6.48997 23.6028 6.48997 22.12 6.91998C21.63 7.05998 21.51 7.24998 21.68 7.72998C21.94 8.49998 22.26 9.24998 22.59 9.99998C22.6314 10.0611 22.6863 10.1118 22.7505 10.1482C22.8146 10.1846 22.8863 10.2058 22.96 10.21C23.44 10.25 23.92 10.23 24.41 10.23ZM27.2 15.7H21.55V17.5C23.4084 17.0852 25.3332 17.0648 27.2 17.44V15.7Z" fill="#663300"/>
<path d="M25.6201 39.6H20.8101C20.6641 39.6199 20.5161 39.6199 20.3701 39.6C20.3059 39.586 20.2451 39.5591 20.1914 39.5211C20.1378 39.483 20.0923 39.4345 20.0578 39.3785C20.0233 39.3226 20.0004 39.2602 19.9905 39.1952C19.9805 39.1301 19.9838 39.0638 20.0001 39C19.9972 38.8697 20.0442 38.7432 20.1316 38.6465C20.219 38.5498 20.3402 38.4902 20.4701 38.48H20.8701C23.9401 38.48 27.0101 38.48 30.0701 38.48C30.2565 38.4967 30.4442 38.4691 30.618 38.3996C30.7917 38.3301 30.9466 38.2206 31.0701 38.08C31.2093 37.9324 31.3562 37.7922 31.5101 37.66C31.556 37.6103 31.6117 37.5707 31.6736 37.5436C31.7356 37.5164 31.8025 37.5024 31.8701 37.5024C31.9378 37.5024 32.0047 37.5164 32.0666 37.5436C32.1286 37.5707 32.1842 37.6103 32.2301 37.66C32.2866 37.6996 32.3337 37.7511 32.368 37.8109C32.4024 37.8706 32.4231 37.9373 32.4289 38.006C32.4346 38.0747 32.4251 38.1438 32.4012 38.2084C32.3772 38.2731 32.3393 38.3317 32.2901 38.38C31.8862 38.7762 31.4551 39.1437 31.0001 39.48C30.8223 39.5742 30.6201 39.6126 30.4201 39.59L25.6201 39.6Z" fill="#663300"/>
<path d="M18.5699 27.91C20.0299 28.25 21.4999 28.57 22.9499 28.91C24.0499 29.2 25.1399 29.56 26.2299 29.91C26.6399 30.04 26.8499 30.3 26.7799 30.59C26.7498 30.6728 26.7036 30.7488 26.6441 30.8137C26.5845 30.8786 26.5128 30.9312 26.4329 30.9683C26.353 31.0055 26.2666 31.0265 26.1785 31.0302C26.0905 31.034 26.0026 31.0203 25.9199 30.99C24.4999 30.57 23.0999 30.11 21.6699 29.74C20.6699 29.49 19.6699 29.35 18.6699 29.16C18.5482 29.1463 18.4278 29.1229 18.3099 29.09C18.2423 29.0809 18.1773 29.0576 18.1194 29.0214C18.0616 28.9853 18.012 28.9372 17.9742 28.8805C17.9363 28.8237 17.911 28.7595 17.8999 28.6922C17.8888 28.6248 17.8922 28.5559 17.9099 28.49C17.9251 28.3476 17.9952 28.2167 18.1054 28.1252C18.2156 28.0337 18.3571 27.9887 18.4999 28L18.5699 27.91Z" fill="#663300"/>
<path d="M33.4901 35.22C33.564 35.2184 33.6375 35.2323 33.7057 35.2608C33.774 35.2892 33.8355 35.3317 33.8863 35.3854C33.9372 35.4391 33.9763 35.5028 34.001 35.5725C34.0258 35.6422 34.0357 35.7163 34.0301 35.79C34.0117 36.002 33.9261 36.2027 33.7859 36.3628C33.6456 36.5228 33.4579 36.634 33.2501 36.68C33.1791 36.6788 33.1092 36.6632 33.0445 36.634C32.9798 36.6048 32.9218 36.5627 32.8741 36.5102C32.8263 36.4577 32.7898 36.3961 32.7667 36.329C32.7437 36.2618 32.7346 36.1907 32.7401 36.12C32.7401 35.7 33.1501 35.21 33.4901 35.22Z" fill="#663300"/>
<path d="M16.0699 29C15.6099 29 15.3799 28.82 15.3699 28.46C15.3599 28.1 15.5999 27.89 16.0399 27.89C16.4799 27.89 16.7699 28.1 16.7699 28.46C16.7699 28.82 16.5199 29 16.0699 29Z" fill="#663300"/>
</svg>
