<svg width="48" height="48" viewBox="0 0 48 48" fill="none" xmlns="http://www.w3.org/2000/svg">
<path d="M23.71 36.75C23.0996 36.7526 22.5044 36.5599 22.0114 36.2001C21.5184 35.8402 21.1535 35.3321 20.97 34.75C20.581 33.613 20.4379 32.4064 20.55 31.21C20.8453 27.1283 22.1251 23.179 24.28 19.7C26.4957 15.8788 29.3427 12.4605 32.7 9.58999C33.0266 9.34316 33.3869 9.14447 33.77 8.99999C33.8639 8.98149 33.9611 8.9874 34.0521 9.01716C34.1432 9.04693 34.2251 9.09954 34.29 9.16999C34.3832 9.34084 34.415 9.53852 34.38 9.72998C34.38 9.83998 34.25 9.94999 34.17 10.06C31.5858 13.4024 29.4041 17.0374 27.67 20.89C26.5195 23.434 25.7318 26.127 25.33 28.89C25.2216 29.7758 25.1681 30.6675 25.17 31.56C25.2032 31.8548 25.3293 32.1314 25.53 32.35C26.009 32.9091 26.284 33.6142 26.31 34.35C26.3541 34.9253 26.1684 35.4947 25.7935 35.9333C25.4186 36.3719 24.8851 36.644 24.31 36.69L23.71 36.75ZM30.26 13.64L30.16 13.54C30.1 13.62 30.06 13.71 30 13.78C27.3443 16.6764 25.1731 19.9822 23.57 23.57C22.2844 26.3696 21.6355 29.4195 21.67 32.5C21.6579 33.3284 21.8723 34.1444 22.29 34.86C22.4198 35.0547 22.587 35.2216 22.7818 35.3513C22.9765 35.4809 23.1951 35.5707 23.4248 35.6153C23.6545 35.66 23.8908 35.6586 24.12 35.6114C24.3491 35.5641 24.5667 35.4719 24.76 35.34C24.8907 35.2623 24.9979 35.1506 25.0701 35.0167C25.1423 34.8829 25.1768 34.7319 25.17 34.58C25.2031 34.2955 25.1746 34.0072 25.0867 33.7346C24.9987 33.462 24.8532 33.2115 24.66 33C24.4331 32.7506 24.258 32.4586 24.1447 32.1411C24.0314 31.8235 23.9822 31.4867 24 31.15C24.0812 29.0439 24.417 26.9554 25 24.93C26.1252 21.1727 27.764 17.5888 29.87 14.28L30.26 13.64Z" fill="#663300"/>
<path d="M14.3399 29.75C15.3399 29.84 16.4499 29.9 17.5499 30.05C18.0614 30.1193 18.5285 30.3772 18.8596 30.7731C19.1907 31.169 19.362 31.6743 19.3399 32.19C19.3077 33.329 19.5333 34.4605 19.9999 35.5C20.2508 36.1236 20.6591 36.6716 21.1849 37.0905C21.7106 37.5093 22.336 37.7848 22.9999 37.89C24.0996 38.1005 25.238 37.8707 26.1699 37.25C26.7062 36.8663 27.1194 36.3349 27.3591 35.7206C27.5988 35.1063 27.6547 34.4355 27.5199 33.79C27.4599 33.28 27.2799 32.79 27.1799 32.27C27.1238 32.0019 27.1235 31.7251 27.1787 31.4569C27.234 31.1886 27.3438 30.9346 27.5014 30.7105C27.6589 30.4864 27.8607 30.2971 28.0944 30.1542C28.3281 30.0114 28.5887 29.918 28.8599 29.88C29.3644 29.8218 29.8722 29.7984 30.3799 29.81C33.9175 29.7979 37.4477 30.1328 40.9199 30.81C41.1499 30.86 41.3899 30.91 41.6199 30.98C41.6947 30.9962 41.7653 31.0276 41.8274 31.0722C41.8896 31.1167 41.942 31.1736 41.9813 31.2391C42.0207 31.3047 42.0462 31.3777 42.0563 31.4535C42.0663 31.5293 42.0608 31.6064 42.0399 31.68C41.9938 31.8252 41.8925 31.9464 41.7578 32.0176C41.6231 32.0887 41.4658 32.1039 41.3199 32.06C37.38 31.2288 33.3546 30.8729 29.3299 31C29.153 30.9823 28.9747 31.0121 28.8131 31.0862C28.6516 31.1604 28.5127 31.2763 28.4109 31.422C28.309 31.5676 28.2478 31.7378 28.2336 31.915C28.2193 32.0922 28.2526 32.2699 28.3299 32.43C28.6819 33.4141 28.7579 34.4758 28.5499 35.5C28.3792 36.3803 27.9425 37.187 27.2987 37.8111C26.6549 38.4352 25.8351 38.8467 24.9499 38.99C21.5199 39.7 19.1999 37.51 18.5499 34.69C18.3903 33.8851 18.2901 33.0696 18.2499 32.25C18.2642 31.9943 18.1799 31.7429 18.0143 31.5475C17.8487 31.3522 17.6145 31.2278 17.3599 31.2C15.7922 30.9469 14.1969 30.9132 12.6199 31.1C10.6544 31.2626 8.70697 31.5973 6.79991 32.1C6.72768 32.1204 6.65215 32.1263 6.57764 32.1175C6.50312 32.1086 6.43107 32.0852 6.3656 32.0485C6.30014 32.0118 6.24254 31.9626 6.19609 31.9037C6.14965 31.8447 6.11526 31.7772 6.09491 31.705C6.07455 31.6328 6.06863 31.5572 6.07746 31.4827C6.0863 31.4082 6.10972 31.3362 6.1464 31.2707C6.18308 31.2052 6.23229 31.1476 6.29123 31.1012C6.35017 31.0547 6.41768 31.0204 6.48991 31C7.61991 30.74 8.74991 30.45 9.89991 30.28C11.3299 30 12.7799 29.92 14.3399 29.75Z" fill="#663300"/>
<path d="M16.45 20C16.04 20.52 15.62 21 15.22 21.56C13.6858 23.5596 12.4527 25.7731 11.56 28.13C11.41 28.55 11.13 28.72 10.8 28.59C10.47 28.46 10.35 28.16 10.52 27.72C11.4489 25.2477 12.7433 22.9285 14.36 20.84C15.7227 18.9991 17.2931 17.3214 19.04 15.84C19.2559 15.6469 19.5072 15.4975 19.78 15.4C19.8794 15.3849 19.9808 15.3914 20.0774 15.419C20.1741 15.4466 20.2636 15.4947 20.34 15.56C20.4414 15.7542 20.4629 15.9802 20.4 16.19C20.4 16.36 20.19 16.5 20.08 16.66C17.7053 19.9037 15.8342 23.4875 14.53 27.29C14.43 27.6 14.35 27.92 14.24 28.23C14.2196 28.3018 14.1851 28.3687 14.1384 28.4269C14.0918 28.4851 14.034 28.5334 13.9685 28.5689C13.9029 28.6045 13.831 28.6266 13.7568 28.634C13.6825 28.6414 13.6076 28.6338 13.5364 28.6119C13.4651 28.5899 13.3989 28.5539 13.3418 28.506C13.2846 28.4581 13.2376 28.3993 13.2035 28.333C13.1693 28.2667 13.1488 28.1942 13.1431 28.1199C13.1373 28.0455 13.1465 27.9708 13.17 27.9C13.7786 25.786 14.5995 23.7389 15.62 21.79L16.52 20.1L16.45 20Z" fill="#663300"/>
<path d="M37.9101 20C37.1401 21.07 36.3401 22.11 35.6001 23.2C34.5487 24.7545 33.6955 26.4342 33.0601 28.2C32.9001 28.64 32.5701 28.8 32.2301 28.62C32.1633 28.5844 32.1042 28.5358 32.0564 28.4771C32.0086 28.4185 31.9729 28.3509 31.9515 28.2782C31.9301 28.2056 31.9234 28.1295 31.9317 28.0542C31.94 27.979 31.9633 27.9062 32.0001 27.84C32.5292 26.4136 33.1991 25.0435 34.0001 23.75C35.7607 20.7788 37.9894 18.1111 40.6001 15.85C40.8278 15.6523 41.0931 15.5027 41.3801 15.41C41.4748 15.3964 41.5715 15.4056 41.6619 15.4369C41.7524 15.4682 41.834 15.5207 41.9001 15.59C41.9505 15.6731 41.9836 15.7656 41.9974 15.8618C42.0111 15.9581 42.0052 16.0561 41.9801 16.15C41.8988 16.3369 41.7873 16.5092 41.6501 16.66C39.244 19.8816 37.3391 23.4486 36.0001 27.24C35.9001 27.54 35.8201 27.84 35.7201 28.14C35.7061 28.2172 35.6762 28.2906 35.6321 28.3554C35.588 28.4203 35.5308 28.4752 35.4641 28.5165C35.3975 28.5578 35.3229 28.5847 35.2452 28.5954C35.1675 28.6061 35.0884 28.6003 35.0131 28.5785C34.9378 28.5567 34.8679 28.5193 34.8079 28.4687C34.748 28.4181 34.6993 28.3556 34.6651 28.285C34.6309 28.2144 34.6119 28.1375 34.6093 28.0591C34.6067 27.9807 34.6206 27.9027 34.6501 27.83C35.3801 25.39 36.3866 23.0414 37.6501 20.83L38.0301 20.13C38.0301 20.13 38.0301 20.13 38.0301 20.06L37.9101 20Z" fill="#663300"/>
<path d="M31.9999 32.93C32.1076 33.6294 32.2613 34.3209 32.4599 35C32.5033 35.1824 32.585 35.3535 32.6996 35.5019C32.8142 35.6503 32.9592 35.7725 33.1247 35.8605C33.2903 35.9485 33.4727 36.0002 33.6598 36.0122C33.847 36.0242 34.0345 35.9962 34.2099 35.93C34.8699 35.8 35.1299 35.27 34.8599 34.52C34.7646 34.2739 34.6257 34.0469 34.4499 33.85C34.2507 33.5995 34.1074 33.3093 34.0298 32.9988C33.9522 32.6883 33.942 32.3648 33.9999 32.05C34.0101 31.9147 34.0718 31.7885 34.1723 31.6974C34.2727 31.6062 34.4043 31.5571 34.5399 31.56C34.8199 31.56 35.1399 31.78 35.0999 32.06C35.0851 32.3527 35.1298 32.6454 35.2312 32.9204C35.3326 33.1954 35.4886 33.447 35.6899 33.66C35.8694 33.9422 35.9894 34.2579 36.0427 34.5881C36.096 34.9182 36.0815 35.2557 35.9999 35.58C35.9163 35.9952 35.697 36.3708 35.3766 36.6477C35.0562 36.9247 34.6528 37.0873 34.2299 37.11C33.674 37.2339 33.0922 37.1561 32.5884 36.8905C32.0846 36.6248 31.6917 36.1887 31.4799 35.66C30.9927 34.5053 30.8469 33.2351 31.0599 32C31.0919 31.8749 31.1669 31.765 31.2717 31.6896C31.3766 31.6142 31.5046 31.5781 31.6334 31.5877C31.7622 31.5972 31.8836 31.6518 31.9762 31.7418C32.0688 31.8318 32.1267 31.9515 32.1399 32.08C32.1399 32.36 32.1399 32.63 32.1399 32.91L31.9999 32.93Z" fill="#663300"/>
<path d="M10.5199 33.24C10.6384 33.8667 10.7988 34.4847 10.9999 35.09C11.0513 35.2727 11.1412 35.4424 11.2636 35.5875C11.386 35.7326 11.538 35.8498 11.7095 35.9313C11.8809 36.0128 12.0678 36.0566 12.2576 36.0598C12.4475 36.063 12.6358 36.0256 12.8099 35.95C13.4099 35.79 13.6399 35.26 13.3699 34.55C13.2488 34.3143 13.1118 34.0871 12.9599 33.87C12.7637 33.5298 12.6092 33.1672 12.4999 32.79C12.4806 32.7158 12.4779 32.6383 12.492 32.5629C12.5062 32.4876 12.5368 32.4163 12.5817 32.3542C12.6266 32.2921 12.6847 32.2407 12.7518 32.2037C12.8189 32.1666 12.8934 32.1449 12.9699 32.14C13.1148 32.1319 13.2579 32.1758 13.3734 32.2638C13.4889 32.3518 13.5692 32.4781 13.5999 32.62C13.6766 32.8601 13.7914 33.0863 13.9399 33.29C14.3352 33.7728 14.554 34.376 14.5599 35C14.586 35.2636 14.5578 35.5299 14.4771 35.7822C14.3964 36.0346 14.2649 36.2677 14.0906 36.4673C13.9163 36.6669 13.703 36.8286 13.4638 36.9426C13.2247 37.0566 12.9647 37.1203 12.6999 37.13C12.1428 37.2365 11.566 37.1423 11.0717 36.8641C10.5775 36.5858 10.1978 36.1415 9.99988 35.61C9.5987 34.685 9.43705 33.6739 9.52988 32.67C9.53764 32.5223 9.60247 32.3835 9.71069 32.2827C9.81891 32.1819 9.96205 32.1272 10.1099 32.13C10.2567 32.1401 10.3941 32.2057 10.4944 32.3134C10.5946 32.4211 10.6502 32.5628 10.6499 32.71C10.6499 32.88 10.6499 33.05 10.6499 33.22L10.5199 33.24Z" fill="#663300"/>
</svg>
