<svg width="48" height="48" viewBox="0 0 48 48" fill="none" xmlns="http://www.w3.org/2000/svg">
<path d="M13.6601 24.29V22.5C13.6601 21.43 13.6601 20.35 13.6601 19.28C13.6452 19.1029 13.6701 18.9247 13.733 18.7585C13.796 18.5923 13.8954 18.4423 14.0239 18.3195C14.1525 18.1967 14.3068 18.1043 14.4758 18.049C14.6447 17.9937 14.8239 17.977 15.0001 18H19.5601C19.7445 17.98 19.931 18.0023 20.1054 18.0652C20.2799 18.1281 20.4377 18.23 20.5669 18.363C20.6961 18.4961 20.7932 18.6568 20.851 18.833C20.9087 19.0093 20.9255 19.1963 20.9001 19.38C20.9001 20.86 20.9001 22.38 20.9001 23.82V24.34H21.5101C21.7267 24.3233 21.9442 24.3539 22.1478 24.4296C22.3514 24.5052 22.5361 24.6242 22.6892 24.7782C22.8423 24.9323 22.9601 25.1177 23.0345 25.3218C23.1089 25.5258 23.1381 25.7436 23.1201 25.96C23.1201 26.96 23.1201 27.9 23.1201 28.91C23.9612 29.0149 24.7428 29.3987 25.3401 30C25.4201 29.58 25.4701 29.21 25.5601 28.85C25.6582 28.3321 25.9298 27.863 26.3301 27.52C26.6163 27.2789 26.9851 27.1587 27.3585 27.1848C27.7318 27.2109 28.0803 27.3814 28.3301 27.66C28.7371 28.1288 28.9887 28.7123 29.0501 29.33C29.0501 29.53 29.1001 29.74 29.1401 29.99C29.3231 29.8259 29.5206 29.6786 29.7301 29.55C30.1658 29.2937 30.6331 29.0954 31.1201 28.96C31.3705 28.8966 31.6333 28.9017 31.8811 28.9748C32.1288 29.0479 32.3523 29.1863 32.5282 29.3755C32.7041 29.5646 32.8258 29.7976 32.8807 30.05C32.9356 30.3024 32.9216 30.5649 32.8401 30.81C32.6483 31.3353 32.4002 31.8382 32.1001 32.31C32.0204 32.4343 31.9301 32.5514 31.8301 32.66C32.217 32.7133 32.6009 32.7867 32.9801 32.88C33.3355 32.98 33.673 33.1352 33.9801 33.34C34.1934 33.4679 34.37 33.6489 34.4926 33.8654C34.6152 34.0818 34.6796 34.3263 34.6796 34.575C34.6796 34.8238 34.6152 35.0683 34.4926 35.2847C34.37 35.5011 34.1934 35.6821 33.9801 35.81C33.4484 36.0736 32.888 36.275 32.3101 36.41C32.1554 36.4416 31.998 36.4583 31.8401 36.46L32.1301 36.83C32.5938 37.3532 32.8746 38.0131 32.9301 38.71C32.9461 38.9304 32.9105 39.1515 32.826 39.3557C32.7416 39.5598 32.6106 39.7415 32.4436 39.8862C32.2766 40.0308 32.0781 40.1346 31.864 40.189C31.6499 40.2435 31.426 40.2473 31.2101 40.2C30.6554 40.0274 30.122 39.7926 29.6201 39.5C29.463 39.4009 29.3156 39.2871 29.1801 39.16C29.1438 39.4972 29.0836 39.8314 29.0001 40.16C28.8945 40.5354 28.7399 40.8952 28.5401 41.23C28.4114 41.4544 28.2257 41.6408 28.0018 41.7705C27.7779 41.9001 27.5238 41.9684 27.2651 41.9684C27.0064 41.9684 26.7523 41.9001 26.5284 41.7705C26.3046 41.6408 26.1189 41.4544 25.9901 41.23C25.6498 40.6988 25.4502 40.0897 25.4101 39.46C25.4101 39.37 25.4101 39.28 25.4101 39.13C24.7892 39.7339 23.9892 40.1199 23.1301 40.23C23.1301 40.38 23.1301 40.51 23.1301 40.63C23.114 40.9814 22.9698 41.3148 22.7248 41.5672C22.4798 41.8195 22.1509 41.9735 21.8001 42C21.6304 42.0149 21.4598 42.0149 21.2901 42H12.9201C11.6501 42 11.1101 41.46 11.1101 40.18V26.08C11.1101 24.84 11.6601 24.3 12.9101 24.29H13.6601ZM17.0001 41.44C17.0001 41.35 17.0001 41.33 17.0001 41.3C16.5705 38.9841 16.5943 36.6069 17.0701 34.3C17.4439 32.3175 17.4439 30.2826 17.0701 28.3C17.0701 28.06 16.9401 27.95 16.6901 27.98C16.4401 28.01 16.2401 27.85 16.2601 27.53C16.2801 27.21 16.2601 27.17 16.2601 26.98V24.84H12.9401C11.9401 24.84 11.6601 25.14 11.6601 26.14V40.14C11.6601 40.25 11.6601 40.35 11.6601 40.45C11.6478 40.5844 11.6652 40.7199 11.7111 40.8468C11.757 40.9737 11.8303 41.089 11.9257 41.1844C12.0212 41.2798 12.1364 41.3531 12.2633 41.399C12.3903 41.4449 12.5257 41.4623 12.6601 41.45C13.3501 41.45 14.0401 41.45 14.7401 41.45L17.0001 41.44ZM22.7001 32.62C22.603 32.5055 22.5128 32.3853 22.4301 32.26C22.1528 31.8066 21.912 31.3317 21.7101 30.84C21.5938 30.5083 21.5994 30.1461 21.7258 29.8181C21.8522 29.4901 22.0913 29.2179 22.4001 29.05C22.4544 29.0023 22.4984 28.944 22.5294 28.8786C22.5604 28.8133 22.5776 28.7423 22.5801 28.67C22.5801 27.75 22.5801 26.84 22.5801 25.92C22.5904 25.7777 22.5701 25.6349 22.5206 25.5011C22.4711 25.3673 22.3935 25.2456 22.2931 25.1443C22.1927 25.0429 22.0718 24.9642 21.9385 24.9135C21.8051 24.8627 21.6625 24.8411 21.5201 24.85H18.6701C18.3801 24.85 18.3101 24.95 18.3201 25.22C18.3201 25.9 18.3201 26.58 18.3201 27.22C18.3201 27.86 18.3201 27.95 17.6001 28.02C17.6901 28.9 17.8001 29.76 17.8701 30.62C17.8707 32.5016 17.7 34.3794 17.3601 36.23C17.1563 37.8453 17.2137 39.4829 17.5301 41.08C17.5801 41.28 17.6301 41.41 17.8701 41.4H21.6401C21.8252 41.4076 22.008 41.3566 22.1624 41.2543C22.3168 41.1519 22.435 41.0035 22.5001 40.83C22.5473 40.7506 22.5778 40.6623 22.5897 40.5706C22.6017 40.479 22.5948 40.3858 22.5695 40.2969C22.5442 40.208 22.5011 40.1252 22.4428 40.0535C22.3844 39.9818 22.312 39.9228 22.2301 39.88C22.0545 39.7537 21.91 39.589 21.8078 39.3983C21.7055 39.2077 21.6482 38.9962 21.6401 38.78C21.6275 38.1708 21.8213 37.5751 22.1901 37.09C22.3401 36.87 22.5101 36.66 22.7001 36.39L22.2401 36.33C21.5541 36.293 20.8999 36.0292 20.3801 35.58C20.222 35.4458 20.095 35.2788 20.0079 35.0905C19.9209 34.9023 19.8757 34.6974 19.8757 34.49C19.8757 34.2826 19.9209 34.0777 20.0079 33.8895C20.095 33.7013 20.222 33.5343 20.3801 33.4C20.676 33.158 21.0154 32.9747 21.3801 32.86C21.8007 32.7506 22.2284 32.6704 22.6601 32.62H22.7001ZM16.2001 18.51C15.7601 18.51 15.3801 18.51 15.0001 18.51C14.4301 18.51 14.2101 18.73 14.2101 19.29V22.35C14.2101 22.46 14.2101 22.57 14.2101 22.68H20.2801C20.2801 21.47 20.2801 20.28 20.2801 19.09C20.2803 19.0104 20.2641 18.9315 20.2325 18.8584C20.2008 18.7853 20.1545 18.7195 20.0963 18.6651C20.0382 18.6107 19.9694 18.5688 19.8944 18.5421C19.8193 18.5155 19.7396 18.5045 19.6601 18.51C19.3201 18.51 18.9801 18.51 18.6601 18.51C18.3401 18.51 18.3001 18.58 18.3201 18.85C18.3401 19.12 18.3201 19.53 18.3201 19.85C18.3326 19.9966 18.3144 20.1442 18.2668 20.2834C18.2191 20.4225 18.1431 20.5503 18.0433 20.6584C17.9436 20.7666 17.8225 20.8528 17.6877 20.9117C17.5528 20.9705 17.4072 21.0006 17.2601 21C17.1125 20.9992 16.9667 20.9678 16.8319 20.9079C16.697 20.848 16.576 20.7608 16.4764 20.6518C16.3769 20.5429 16.3009 20.4145 16.2534 20.2748C16.2058 20.1351 16.1877 19.9871 16.2001 19.84C16.1901 19.42 16.2001 19 16.2001 18.51ZM25.8701 38.92C25.9441 39.4084 26.0442 39.8924 26.1701 40.37C26.3701 41.03 26.7901 41.37 27.2601 41.37C27.7301 41.37 28.1501 41 28.3601 40.37C28.5711 39.7775 28.6482 39.1456 28.5859 38.5197C28.5237 37.8938 28.3236 37.2894 28.0001 36.75C27.5608 36.5487 27.0635 36.5131 26.6001 36.65L26.5401 36.75C26.1475 37.4098 25.9178 38.1537 25.8701 38.92ZM22.8101 35.92C23.5042 35.8639 24.1821 35.6809 24.8101 35.38C25.1001 35.24 25.2701 35.09 25.1601 34.73C25.145 34.5103 25.145 34.2898 25.1601 34.07C25.1544 34.0056 25.1355 33.943 25.1045 33.8862C25.0736 33.8295 25.0312 33.7797 24.9801 33.74C24.4102 33.4029 23.7679 33.2069 23.1068 33.1687C22.4457 33.1304 21.7851 33.2509 21.1801 33.52C20.9644 33.5843 20.7751 33.7162 20.6401 33.8963C20.5051 34.0763 20.4314 34.295 20.4301 34.52C20.4229 34.7471 20.4933 34.9699 20.6296 35.1517C20.7659 35.3334 20.9601 35.4633 21.1801 35.52C21.7001 35.71 22.2601 35.81 22.8101 36V35.92ZM31.6601 35.84V35.95C32.289 35.8145 32.9047 35.6238 33.5001 35.38C33.6614 35.2952 33.7964 35.1679 33.8905 35.0119C33.9847 34.856 34.0345 34.6772 34.0345 34.495C34.0345 34.3128 33.9847 34.1341 33.8905 33.9781C33.7964 33.8221 33.6614 33.6949 33.5001 33.61C33.3491 33.5095 33.1839 33.432 33.0101 33.38C31.9626 33.0516 30.831 33.1192 29.8301 33.57C29.4901 33.73 29.2601 33.89 29.3601 34.32C29.3699 34.5132 29.3699 34.7068 29.3601 34.9C29.3652 35.0361 29.4225 35.165 29.5201 35.26C30.1586 35.6679 30.9025 35.88 31.6601 35.87V35.84ZM25.8301 30.11H25.9301C25.9159 30.8119 26.0958 31.504 26.4501 32.11C26.4919 32.1644 26.5446 32.2095 26.6049 32.2422C26.6652 32.2749 26.7317 32.2946 26.8001 32.3C27.1098 32.32 27.4204 32.32 27.7301 32.3C27.8459 32.2964 27.9563 32.2501 28.0401 32.17C28.382 31.5857 28.5754 30.9264 28.6033 30.2499C28.6311 29.5735 28.4927 28.9005 28.2001 28.29C28.1302 28.0968 28.0025 27.9297 27.8343 27.8116C27.6661 27.6935 27.4656 27.6301 27.2601 27.63C27.0551 27.6329 26.8559 27.6987 26.6896 27.8186C26.5232 27.9384 26.3977 28.1065 26.3301 28.3C26.1201 28.93 26.0001 29.54 25.8301 30.14V30.11ZM25.4801 35.68C25.0155 35.9013 24.534 36.0852 24.0401 36.23C23.6402 36.3271 23.2866 36.5605 23.0401 36.89C22.5614 37.3576 22.2578 37.9754 22.1801 38.64C22.1688 38.7691 22.1849 38.8991 22.2273 39.0215C22.2697 39.144 22.3375 39.256 22.4263 39.3504C22.515 39.4448 22.6227 39.5194 22.7423 39.5693C22.8618 39.6193 22.9906 39.6433 23.1201 39.64C23.5828 39.5658 24.0257 39.3991 24.4226 39.15C24.8195 38.9009 25.1621 38.5744 25.4301 38.19C25.6801 37.56 25.8801 36.9 26.1001 36.19L25.4801 35.68ZM28.4801 36.28C28.6801 36.89 28.8901 37.5 29.1001 38.11C29.1134 38.177 29.1445 38.2392 29.1901 38.29C29.696 38.9332 30.3984 39.3933 31.1901 39.6C31.3531 39.6337 31.5219 39.6262 31.6813 39.5781C31.8406 39.5301 31.9855 39.443 32.1026 39.3249C32.2198 39.2067 32.3057 39.0611 32.3524 38.9014C32.3991 38.7416 32.4052 38.5727 32.3701 38.41C32.1573 37.6184 31.6943 36.9169 31.0501 36.41C31.0132 36.3741 30.9688 36.3468 30.9201 36.33L29.0001 35.74L28.4801 36.28ZM26.0001 32.65C25.8301 32.2 25.6401 31.77 25.5001 31.33C25.3061 30.8362 24.9878 30.4009 24.5761 30.0663C24.1643 29.7316 23.6732 29.509 23.1501 29.42C23.0255 29.4105 22.9003 29.4262 22.7819 29.4662C22.6635 29.5061 22.5544 29.5696 22.4611 29.6526C22.3677 29.7357 22.2921 29.8367 22.2387 29.9497C22.1852 30.0626 22.1551 30.1852 22.1501 30.31C22.2066 30.7814 22.3624 31.2354 22.6072 31.6422C22.8519 32.049 23.1801 32.3993 23.5701 32.67C24.1701 32.91 24.8001 33.08 25.4201 33.29L26.0001 32.65ZM29.0701 33.29L30.9001 32.69H31.0001C31.6379 32.1753 32.1021 31.4772 32.3301 30.69C32.3674 30.5607 32.3758 30.4247 32.3548 30.2917C32.3338 30.1587 32.2839 30.032 32.2086 29.9204C32.1332 29.8088 32.0343 29.7151 31.9188 29.6459C31.8033 29.5768 31.674 29.5338 31.5401 29.52C31.0465 29.5577 30.5682 29.708 30.1418 29.9594C29.7153 30.2108 29.3521 30.5565 29.0801 30.97C28.8601 31.55 28.6901 32.15 28.4901 32.75L29.0701 33.29ZM28.8301 34.46C28.8301 34.1436 28.7363 33.8342 28.5605 33.5711C28.3846 33.308 28.1348 33.1029 27.8424 32.9818C27.55 32.8607 27.2283 32.829 26.918 32.8908C26.6076 32.9525 26.3225 33.1049 26.0987 33.3287C25.875 33.5524 25.7226 33.8375 25.6609 34.1479C25.5991 34.4582 25.6308 34.78 25.7519 35.0723C25.873 35.3647 26.0781 35.6146 26.3412 35.7904C26.6043 35.9662 26.9137 36.06 27.2301 36.06C27.4427 36.064 27.654 36.0256 27.8516 35.947C28.0492 35.8683 28.2292 35.7511 28.3809 35.6021C28.5327 35.4532 28.6532 35.2754 28.7355 35.0793C28.8178 34.8832 28.8601 34.6727 28.8601 34.46H28.8301ZM14.2301 24.26H20.2801V23.26H14.2301V24.26ZM17.7501 27.46V24.88H16.7501V27.46H17.7501ZM16.7501 18.53C16.7501 19.04 16.7501 19.53 16.7501 19.99C16.7493 20.0568 16.7631 20.1229 16.7905 20.1839C16.8178 20.2448 16.8581 20.299 16.9086 20.3428C16.959 20.3866 17.0184 20.4188 17.0825 20.4373C17.1467 20.4559 17.2141 20.4602 17.2801 20.45C17.3433 20.4557 17.407 20.4479 17.467 20.4272C17.527 20.4065 17.582 20.3733 17.6283 20.3299C17.6745 20.2865 17.7111 20.2337 17.7355 20.1751C17.76 20.1166 17.7718 20.0535 17.7701 19.99C17.7701 19.51 17.7701 18.99 17.7701 18.53H16.7501Z" fill="#663300"/>
<path d="M27.9999 7.15C27.7699 7.54 27.5299 7.92 27.3099 8.31C27.2489 8.48378 27.1648 8.64858 27.0599 8.8C26.806 9.03029 26.6089 9.31625 26.484 9.63548C26.359 9.95471 26.3098 10.2985 26.3399 10.64C26.3399 10.76 26.1699 10.96 26.0199 11.05C25.9205 11.0938 25.8426 11.1753 25.8032 11.2766C25.7639 11.3778 25.7663 11.4905 25.8099 11.59C25.868 11.7692 25.8683 11.9621 25.8109 12.1415C25.7535 12.3209 25.6412 12.4778 25.4899 12.59C25.452 12.6291 25.424 12.6768 25.4083 12.729C25.3927 12.7812 25.3898 12.8364 25.3999 12.89C25.4823 13.119 25.4899 13.3683 25.4216 13.6019C25.3533 13.8355 25.2127 14.0414 25.0199 14.19C24.9259 14.2614 24.8595 14.3632 24.8321 14.4781C24.8048 14.593 24.8181 14.7139 24.8699 14.82C24.9761 15.0671 25.0099 15.3392 24.9674 15.6048C24.9249 15.8703 24.8079 16.1184 24.6299 16.32C24.5557 16.4098 24.5166 16.5235 24.5199 16.64C24.6115 17.9452 24.5579 19.2566 24.3599 20.55C24.3599 21.26 24.2699 21.98 24.2499 22.7C24.2482 22.8686 24.2823 23.0356 24.3499 23.19L25.8899 27C25.9265 27.0569 25.9472 27.1225 25.9499 27.19C25.9499 27.34 25.8699 27.49 25.8299 27.65C25.6999 27.56 25.5299 27.5 25.4699 27.38C25.357 27.1469 25.2601 26.9063 25.1799 26.66C24.4299 24.83 23.6699 23.01 22.9199 21.18C22.8773 21.0994 22.8405 21.0159 22.8099 20.93C22.6791 20.1474 22.3328 19.4168 21.8099 18.82C21.5899 18.59 21.6399 18.13 21.5399 17.82C21.5106 17.6617 21.4297 17.5176 21.3099 17.41C21.06 17.2634 20.854 17.0525 20.7133 16.7993C20.5725 16.546 20.5023 16.2596 20.5099 15.97C20.5165 15.8532 20.4888 15.7369 20.4301 15.6357C20.3715 15.5344 20.2845 15.4525 20.1799 15.4C19.9377 15.2581 19.7388 15.0527 19.6049 14.8059C19.4709 14.5591 19.407 14.2805 19.4199 14C19.4155 13.865 19.3752 13.7336 19.3032 13.6194C19.2311 13.5051 19.1299 13.4121 19.0099 13.35C18.7804 13.2079 18.5852 13.0167 18.4382 12.7902C18.2912 12.5637 18.1962 12.3075 18.1599 12.04C18.0972 11.8514 17.991 11.6801 17.8499 11.54C17.5799 11.23 17.2599 10.96 16.9999 10.63C16.7399 10.3 16.3999 9.81 15.9999 9.43L16.1299 9.76C17.155 12.1237 18.0235 14.5523 18.7299 17.03C18.7299 17.1 18.8099 17.19 18.7899 17.25C18.7641 17.3777 18.6974 17.4935 18.5999 17.58C18.5499 17.58 18.3799 17.51 18.2999 17.43C18.2199 17.35 18.2299 17.23 18.1999 17.13C17.1916 13.6468 15.8521 10.268 14.1999 7.04C14.1623 6.9674 14.1426 6.8868 14.1426 6.805C14.1426 6.7232 14.1623 6.6426 14.1999 6.57C14.3999 6.38 14.5499 6.57 14.6699 6.74L17.3599 10.32C17.4017 10.4011 17.4557 10.4753 17.5199 10.54C18.2001 11.0127 18.6727 11.7287 18.8399 12.54C18.8399 12.76 19.2899 12.91 19.4999 13.12C19.6419 13.2374 19.7462 13.3938 19.7999 13.57C19.8899 14.23 20.0299 14.84 20.7399 15.12C20.8054 15.1686 20.8586 15.232 20.8951 15.3049C20.9315 15.3779 20.9503 15.4584 20.9499 15.54C20.9168 15.8541 20.9817 16.1707 21.1357 16.4464C21.2897 16.7221 21.5252 16.9434 21.8099 17.08C21.8653 17.1209 21.911 17.1734 21.9438 17.2339C21.9767 17.2944 21.9958 17.3613 21.9999 17.43C21.9839 17.7896 22.0524 18.1479 22.2 18.4762C22.3477 18.8044 22.5703 19.0934 22.8499 19.32C22.9576 19.4335 23.0183 19.5836 23.0199 19.74C23.0829 20.3989 23.3174 21.0298 23.6999 21.57C23.6999 21.15 23.6999 20.73 23.7899 20.31C23.8699 19.5 23.9799 18.7 24.0299 17.89C24.0299 17.49 23.9499 17.08 23.9299 16.68C23.9056 16.4896 23.9443 16.2964 24.0399 16.13C24.2195 15.9471 24.3357 15.7116 24.3717 15.4579C24.4077 15.2042 24.3615 14.9456 24.2399 14.72C24.1709 14.5925 24.1521 14.4438 24.1872 14.3031C24.2224 14.1624 24.309 14.04 24.4299 13.96C24.6243 13.8343 24.7654 13.6413 24.8262 13.4181C24.8871 13.1948 24.8635 12.9569 24.7599 12.75C24.7548 12.6602 24.7745 12.5707 24.8168 12.4913C24.8591 12.4119 24.9225 12.3457 24.9999 12.3C25.1384 12.2235 25.2431 12.0978 25.2931 11.9477C25.3431 11.7976 25.3349 11.6343 25.2699 11.49C25.2246 11.417 25.1977 11.3341 25.1916 11.2484C25.1854 11.1626 25.2002 11.0767 25.2346 10.998C25.2691 10.9193 25.3222 10.8501 25.3893 10.7964C25.4564 10.7428 25.5356 10.7063 25.6199 10.69C25.6731 10.671 25.7221 10.6417 25.7639 10.6037C25.8058 10.5658 25.8398 10.52 25.8639 10.4689C25.8881 10.4178 25.9019 10.3625 25.9047 10.306C25.9074 10.2496 25.899 10.1932 25.8799 10.14C25.8251 9.90457 25.8415 9.65817 25.927 9.43206C26.0124 9.20595 26.1631 9.01032 26.3599 8.87C26.5258 8.70538 26.6553 8.50779 26.7399 8.29C27.0889 7.49903 27.596 6.78779 28.2299 6.2C28.3777 6.10712 28.5399 6.03952 28.7099 6C28.7789 6.1684 28.8162 6.34807 28.8199 6.53C28.4799 9.1 28.0799 11.65 27.8199 14.23C27.4081 17.5835 27.231 20.9618 27.2899 24.34C27.2899 24.41 27.2899 24.48 27.2899 24.6C27.5889 24.1238 27.6894 23.5494 27.5699 23C27.5331 22.8666 27.5428 22.7246 27.5973 22.5974C27.6518 22.4702 27.748 22.3653 27.8699 22.3C27.9643 22.2322 28.0545 22.1587 28.1399 22.08C28.3038 21.9787 28.421 21.8168 28.4659 21.6294C28.5109 21.4421 28.48 21.2446 28.3799 21.08C28.2199 20.76 28.2799 20.54 28.6199 20.44C28.8266 20.3945 29.0068 20.269 29.1211 20.091C29.2354 19.9129 29.2746 19.6968 29.2299 19.49C29.1787 19.272 29.2021 19.0432 29.2964 18.8402C29.3907 18.6371 29.5504 18.4715 29.7499 18.37C30.3399 18.02 30.3699 17.37 30.3699 16.81C30.3516 16.6554 30.3861 16.4991 30.4678 16.3666C30.5495 16.2341 30.6736 16.1331 30.8199 16.08C31.0707 15.9754 31.2805 15.7919 31.4177 15.5573C31.5548 15.3227 31.6118 15.0498 31.5799 14.78C31.58 14.653 31.6156 14.5285 31.6828 14.4207C31.7499 14.3129 31.846 14.226 31.9599 14.17C32.2418 13.988 32.4861 13.7538 32.6799 13.48C33.6588 11.9125 34.7982 10.4513 36.0799 9.12C36.2057 8.98434 36.3466 8.86355 36.4999 8.76C36.5899 8.76 36.7999 8.69 36.8399 8.76C36.8799 8.83 36.8399 9.01 36.8399 9.14C36.8399 9.27 36.8399 9.14 36.8399 9.21C35.3651 11.4401 34.2545 13.8908 33.5499 16.47C32.4037 20.2749 31.4558 24.1368 30.7099 28.04C30.7013 28.1837 30.6709 28.3253 30.6199 28.46C30.5206 28.5691 30.4061 28.6634 30.2799 28.74C30.2099 28.62 30.0799 28.48 30.0999 28.37C30.2099 27.72 30.3499 27.08 30.4899 26.45C31.2435 22.5566 32.2456 18.7154 33.4899 14.95C33.8699 13.86 34.3399 12.79 34.7799 11.71C34.8079 11.6052 34.8079 11.4948 34.7799 11.39C34.5899 11.65 34.3899 11.89 34.2099 12.15C33.8099 12.73 33.4299 13.33 33.0199 13.9C32.8566 14.1364 32.6536 14.3428 32.4199 14.51C32.3033 14.5663 32.2049 14.6543 32.1359 14.764C32.0669 14.8736 32.0302 15.0005 32.0299 15.13C32.0215 15.4257 31.9322 15.7135 31.7718 15.962C31.6113 16.2106 31.3859 16.4105 31.1199 16.54C31.0557 16.5845 31.0018 16.6424 30.9621 16.7097C30.9224 16.7771 30.8978 16.8522 30.8899 16.93C30.9034 17.3203 30.819 17.7078 30.6443 18.0572C30.4696 18.4065 30.2103 18.7066 29.8899 18.93C29.7999 18.99 29.7699 19.14 29.7199 19.26C29.7149 19.2965 29.7149 19.3335 29.7199 19.37C29.7199 20.03 29.6699 20.66 28.8299 20.86C29.2099 21.68 28.8299 22.19 28.2399 22.65C28.1903 22.6873 28.1499 22.7356 28.1222 22.7911C28.0944 22.8467 28.0799 22.9079 28.0799 22.97C28.1267 23.7421 27.9643 24.5125 27.6099 25.2C27.4299 25.64 27.2899 26.09 27.0999 26.52C27.0499 26.64 26.8699 26.71 26.7499 26.8C26.6793 26.655 26.6321 26.4998 26.6099 26.34C26.6099 26.1 26.6899 25.85 26.6799 25.61C26.5483 22.2188 26.6719 18.8226 27.0499 15.45C27.3499 12.76 27.7299 10.08 28.0499 7.45C28.0549 7.37008 28.0549 7.28992 28.0499 7.21L27.9999 7.15Z" fill="#663300"/>
</svg>
