<svg width="174" height="12" viewBox="0 0 174 12" fill="none" xmlns="http://www.w3.org/2000/svg">
<g clip-path="url(#clip0_108_105)">
<path d="M2 8.17C3.10457 8.17 4 7.27457 4 6.17C4 5.06543 3.10457 4.17 2 4.17C0.89543 4.17 0 5.06543 0 6.17C0 7.27457 0.89543 8.17 2 8.17Z" fill="#005D38"/>
<path d="M171 0.81V0C169.852 0.000833656 168.728 0.331038 167.762 0.951423C166.796 1.57181 166.028 2.45633 165.55 3.5H8.45C7.97163 2.45633 7.20388 1.57181 6.23785 0.951423C5.27182 0.331038 4.14808 0.000833656 3 0V0.81C3.90923 1.33743 4.66395 2.09447 5.18859 3.00532C5.71323 3.91617 5.98937 4.94886 5.98937 6C5.98937 7.05114 5.71323 8.08383 5.18859 8.99468C4.66395 9.90553 3.90923 10.6626 3 11.19V12C4.14808 11.9992 5.27182 11.669 6.23785 11.0486C7.20388 10.4282 7.97163 9.54367 8.45 8.5H165.55C166.028 9.54367 166.796 10.4282 167.762 11.0486C168.728 11.669 169.852 11.9992 171 12V11.19C170.091 10.6626 169.336 9.90553 168.811 8.99468C168.287 8.08383 168.011 7.05114 168.011 6C168.011 4.94886 168.287 3.91617 168.811 3.00532C169.336 2.09447 170.091 1.33743 171 0.81Z" fill="#005D38"/>
<path d="M172 8.17C173.105 8.17 174 7.27457 174 6.17C174 5.06543 173.105 4.17 172 4.17C170.895 4.17 170 5.06543 170 6.17C170 7.27457 170.895 8.17 172 8.17Z" fill="#005D38"/>
</g>
<defs>
<clipPath id="clip0_108_105">
<rect width="174" height="12" fill="white"/>
</clipPath>
</defs>
</svg>
