<svg width="48" height="48" viewBox="0 0 48 48" fill="none" xmlns="http://www.w3.org/2000/svg">
<path d="M43.9999 21.59C43.9199 22.28 43.8499 22.97 43.7499 23.65C43.4223 26.5164 42.3156 29.2383 40.5499 31.52L40.4399 31.7L41.9199 32.26C41.8199 32.46 41.7499 32.62 41.6599 32.78C40.1466 35.6229 37.7639 37.9074 34.8599 39.3C32.7809 40.2504 30.5345 40.7805 28.2499 40.86C27.5018 40.8679 26.7547 40.8009 26.0199 40.66C25.2308 40.5463 24.5152 40.1348 24.0199 39.51C23.9699 39.51 23.9199 39.51 23.8999 39.51C23.5697 39.8984 23.159 40.2105 22.6963 40.4246C22.2335 40.6387 21.7298 40.7497 21.2199 40.75C14.7499 41.1 9.21994 38.27 6.10994 32.38C6.07038 32.3392 6.03363 32.2958 5.99994 32.25L7.47994 31.71C4.70994 28.11 3.83994 24 3.99994 19.53C6.31359 19.9391 8.53739 20.7514 10.5699 21.93C10.3499 20.4742 10.2928 18.9984 10.3999 17.53C10.4979 16.0515 10.7767 14.5907 11.2299 13.18L13.7399 14.45C14.0277 12.3286 14.6593 10.2682 15.6099 8.35C17.3128 9.41554 18.8409 10.7378 20.1399 12.27C21.0904 10.4316 22.2515 8.71002 23.5999 7.14C25.1259 8.77981 26.4457 10.6 27.5299 12.56C28.8851 10.9111 30.4955 9.48983 32.2999 8.35C33.2577 10.2654 33.8897 12.3269 34.1699 14.45L36.6799 13.18C37.173 14.5664 37.4528 16.0196 37.5099 17.49C37.5699 18.94 37.5099 20.39 37.5099 21.86C39.479 20.7229 41.6312 19.9378 43.8699 19.54L44.0199 20.23L43.9999 21.59ZM23.6599 9C21.8043 11.502 20.3812 14.2974 19.4499 17.27C18.5579 20.2796 18.3562 23.4517 18.8599 26.55C20.356 24.552 22.0811 22.7363 23.9999 21.14C25.9635 22.7762 27.7228 24.643 29.2399 26.7C29.6328 23.4358 29.2912 20.1251 28.2399 17.01C27.1693 14.1039 25.6214 11.3968 23.6599 9ZM40.1699 33C40.1051 32.9689 40.0383 32.9421 39.9699 32.92L39.3099 32.75C36.7535 32.0595 34.0477 32.1607 31.5499 33.04C29.6056 33.7213 27.8123 34.7741 26.2699 36.14C25.8028 36.5748 25.3988 37.073 25.0699 37.62C24.9484 37.7685 24.8678 37.9463 24.8362 38.1356C24.8046 38.3249 24.823 38.5192 24.8898 38.6992C24.9565 38.8791 25.0691 39.0385 25.2165 39.1615C25.3639 39.2844 25.5409 39.3666 25.7299 39.4C26.1813 39.5632 26.6519 39.6674 27.1299 39.71C29.6193 39.8287 32.1003 39.3414 34.3599 38.29C36.5783 37.2225 38.4603 35.5654 39.7999 33.5C39.9199 33.33 39.9999 33.15 40.1699 32.93V33ZM7.77994 32.84C7.80422 32.9188 7.83431 32.9957 7.86994 33.07C9.03179 34.9239 10.606 36.4844 12.4699 37.63C14.801 38.9456 17.4332 39.6346 20.1099 39.63C20.7482 39.6407 21.3846 39.5599 21.9999 39.39C23.0999 39.07 23.3699 38.33 22.7499 37.39C22.4041 36.8498 21.9794 36.3645 21.4899 35.95C18.3399 33.41 14.8399 31.86 10.6799 32.35C9.74994 32.44 8.78994 32.66 7.77994 32.84ZM16.7799 31.84C16.8699 30.93 14.7099 27.23 13.0399 25.48C10.8589 23.2911 8.11968 21.7416 5.11994 21C5.22994 22 5.29994 22.95 5.43994 23.85C5.79154 26.5136 6.88283 29.0253 8.58994 31.1C8.65746 31.2026 8.75581 31.2812 8.87083 31.3243C8.98585 31.3674 9.11159 31.3729 9.22994 31.34C11.109 30.975 13.0408 30.975 14.9199 31.34C15.5399 31.44 16.1499 31.63 16.7999 31.8L16.7799 31.84ZM31.1399 31.84C31.1999 31.84 31.2299 31.84 31.2499 31.84C33.6933 31.026 36.3088 30.8742 38.8299 31.4C38.9106 31.4048 38.9913 31.391 39.0658 31.3598C39.1403 31.3286 39.2067 31.2808 39.2599 31.22C39.7153 30.6641 40.1393 30.0832 40.5299 29.48C41.8569 27.1841 42.6051 24.5997 42.7099 21.95C42.7099 21.67 42.7099 21.38 42.7099 21.08C39.3841 21.8644 36.3935 23.6853 34.1699 26.28C32.5999 28.29 31.0799 31 31.1599 31.79L31.1399 31.84ZM26.3999 34.34C26.4733 34.3231 26.5439 34.2962 26.6099 34.26C27.6099 33.68 28.6099 33.11 29.6599 32.51C29.7229 32.4605 29.775 32.3986 29.8129 32.328C29.8507 32.2575 29.8736 32.1798 29.8799 32.1C29.9705 30.9466 29.6827 29.7951 29.0599 28.82C27.7389 26.6166 26.0862 24.6299 24.1599 22.93C23.9599 22.74 23.8399 22.85 23.6999 22.99C22.8299 23.88 21.9399 24.74 21.1099 25.66C20.056 26.782 19.1823 28.0605 18.5199 29.45C18.132 30.2418 17.953 31.1196 17.9999 32C18.0015 32.11 18.0342 32.2173 18.0944 32.3094C18.1546 32.4014 18.2398 32.4745 18.3399 32.52C19.2899 33.04 20.2199 33.58 21.1599 34.12L21.4899 34.3C21.1999 31.49 22.4899 29.3 23.9899 27C24.5399 28 25.0699 28.86 25.5199 29.78C26.294 31.1486 26.6094 32.7291 26.4199 34.29L26.3999 34.34ZM17.2599 29.49C17.3699 28.84 17.8999 28.49 17.7899 27.81C17.6799 27.13 17.6399 26.81 17.5899 26.27C17.3049 24.1763 17.3049 22.0537 17.5899 19.96C17.6152 19.8374 17.6102 19.7105 17.5753 19.5902C17.5405 19.47 17.4769 19.3601 17.3899 19.27C16.0827 17.7302 14.5281 16.419 12.7899 15.39C12.5399 15.24 12.2799 15.11 11.9799 14.94C11.9378 15.0812 11.9044 15.2248 11.8799 15.37C11.7499 16.49 11.5799 17.62 11.5299 18.75C11.5006 20.046 11.6589 21.3394 11.9999 22.59C12.0327 22.7579 12.1165 22.9116 12.2399 23.03C14.2647 24.701 15.9198 26.775 17.0999 29.12C17.0999 29.19 17.1599 29.26 17.2799 29.44L17.2599 29.49ZM35.9999 14.86C33.8189 16.0079 31.8933 17.5864 30.3399 19.5C30.2693 19.6351 30.2447 19.7896 30.2699 19.94C30.4061 20.8748 30.4929 21.8161 30.5299 22.76C30.5299 24.51 30.4099 26.25 30.2999 28C30.3359 28.4837 30.483 28.9525 30.7299 29.37L30.8399 29.26C30.8399 29.18 30.9299 29.1 30.9799 29.02C32.1505 26.7113 33.7845 24.6688 35.7799 23.02C35.9078 22.8928 35.9918 22.7282 36.0199 22.55C36.4373 20.7649 36.5422 18.9209 36.3299 17.1C36.2299 16.39 36.0899 15.67 35.9999 14.86ZM31.8899 10.09C30.6042 11.0757 29.4365 12.2065 28.4099 13.46C28.3327 13.5462 28.2851 13.6549 28.2743 13.7701C28.2635 13.8853 28.29 14.001 28.3499 14.1C28.8399 15.32 29.2899 16.54 29.7499 17.76L29.9399 18.19C29.9878 18.0749 30.0518 17.9672 30.1299 17.87C31.0099 17.08 31.8799 16.27 32.7799 15.5C32.888 15.4269 32.9715 15.3229 33.0197 15.2016C33.0679 15.0803 33.0784 14.9473 33.0499 14.82C32.9199 14.09 32.8199 13.35 32.6399 12.62C32.4599 11.89 32.1299 11 31.8599 10.09H31.8899ZM17.9999 18L18.0799 17.82C18.5599 16.47 19.0799 15.11 19.4999 13.75C19.5203 13.6747 19.5227 13.5957 19.5071 13.5193C19.4915 13.4429 19.4582 13.3712 19.4099 13.31C18.4099 12.31 17.4099 11.36 16.4099 10.39C16.3203 10.3244 16.2268 10.2643 16.1299 10.21C16.0499 10.39 15.9899 10.54 15.9399 10.68C15.4532 12.0527 15.1179 13.4745 14.9399 14.92C14.9172 15.0325 14.9279 15.1492 14.9705 15.2558C15.0131 15.3624 15.0859 15.4542 15.1799 15.52C16.0299 16.25 16.8599 17 17.6999 17.74L17.9999 18ZM23.9999 29.43H23.8899C22.8795 30.9099 22.4751 32.7209 22.7599 34.49C22.9156 35.0904 23.1617 35.6637 23.4899 36.19C23.7399 36.61 24.1099 36.58 24.4199 36.19C24.6058 35.9633 24.7574 35.7106 24.8699 35.44C25.7799 33.31 25.0899 31.34 23.9999 29.43Z" fill="#005D38"/>
<path d="M21.1501 17.51C21.1461 17.1342 21.217 16.7613 21.3587 16.4131C21.5004 16.065 21.71 15.7486 21.9753 15.4823C22.2406 15.2161 22.5563 15.0054 22.9039 14.8625C23.2516 14.7195 23.6242 14.6473 24.0001 14.65C24.7484 14.6603 25.4633 14.9614 25.9934 15.4897C26.5235 16.0179 26.8271 16.7318 26.8401 17.48C26.8414 17.8538 26.7689 18.2242 26.6268 18.5699C26.4846 18.9156 26.2756 19.2299 26.0118 19.4947C25.7479 19.7594 25.4344 19.9695 25.0892 20.1129C24.744 20.2562 24.3739 20.33 24.0001 20.33C23.6265 20.3367 23.2553 20.2685 22.9085 20.1296C22.5617 19.9906 22.2462 19.7836 21.9806 19.5208C21.715 19.258 21.5047 18.9447 21.362 18.5994C21.2194 18.254 21.1473 17.8836 21.1501 17.51ZM24.0001 19.14C24.2154 19.14 24.4287 19.0976 24.6277 19.0152C24.8266 18.9327 25.0074 18.8119 25.1597 18.6597C25.312 18.5074 25.4328 18.3266 25.5152 18.1276C25.5976 17.9286 25.6401 17.7154 25.6401 17.5C25.6401 17.2846 25.5976 17.0714 25.5152 16.8724C25.4328 16.6734 25.312 16.4926 25.1597 16.3404C25.0074 16.1881 24.8266 16.0673 24.6277 15.9848C24.4287 15.9024 24.2154 15.86 24.0001 15.86C23.5651 15.86 23.148 16.0328 22.8404 16.3404C22.5328 16.6479 22.3601 17.065 22.3601 17.5C22.3601 17.935 22.5328 18.3521 22.8404 18.6597C23.148 18.9672 23.5651 19.14 24.0001 19.14Z" fill="#005D38"/>
</svg>
