<svg width="48" height="48" viewBox="0 0 48 48" fill="none" xmlns="http://www.w3.org/2000/svg">
<path d="M16.47 13.57C16.43 12.7905 16.43 12.0095 16.47 11.23C16.5862 10.0483 17.0586 8.92985 17.8247 8.02267C18.5908 7.1155 19.6144 6.46245 20.76 6.15003C21.113 6.05874 21.4754 6.00841 21.84 6.00003C22.84 6.00003 23.84 6.00003 24.78 6.00003C25.4845 5.96983 26.183 6.14216 26.7927 6.49661C27.4023 6.85107 27.8976 7.3728 28.22 8.00003C28.2364 8.00426 28.2536 8.00426 28.27 8.00003C28.6225 7.80991 29.0193 7.7169 29.4196 7.73053C29.8199 7.74416 30.2094 7.86393 30.5482 8.0776C30.887 8.29126 31.163 8.59112 31.3478 8.94649C31.5326 9.30186 31.6196 9.69996 31.6 10.1C31.6 11.1 31.6 12.1 31.6 13.16C31.6 13.29 31.6 13.43 31.68 13.49C32.08 13.79 32.51 14.05 32.88 14.38C34.73 16.02 36.56 17.69 38.4 19.38C39.9943 20.7774 41.034 22.7007 41.33 24.8C41.3981 25.2669 41.4315 25.7382 41.43 26.21C41.43 29.15 41.43 32.08 41.43 35.01V40.01C41.4621 40.2804 41.4325 40.5546 41.3434 40.8119C41.2543 41.0692 41.1079 41.3029 40.9154 41.4954C40.7228 41.688 40.4891 41.8343 40.2318 41.9235C39.9745 42.0126 39.7004 42.0422 39.43 42.01H8.56997C8.29958 42.0422 8.02542 42.0126 7.76813 41.9235C7.51084 41.8343 7.27712 41.688 7.08458 41.4954C6.89204 41.3029 6.74569 41.0692 6.65655 40.8119C6.56741 40.5546 6.53781 40.2804 6.56997 40.01V36.38C6.56997 33.03 6.56997 29.68 6.56997 26.33C6.53262 24.9963 6.79228 23.6709 7.33016 22.4499C7.86804 21.2289 8.67068 20.1427 9.67997 19.27C11.59 17.56 13.49 15.84 15.4 14.14C15.6911 13.9171 15.9986 13.7165 16.32 13.54L16.47 13.57ZM35.14 40.9C35.1435 40.8568 35.1435 40.8133 35.14 40.77C35.48 37.77 35.81 34.77 36.14 31.77C36.14 31.55 36.07 31.49 35.91 31.43L33.61 30.43C32.97 30.17 32.97 30.17 32.49 30.69L32.16 31.04C30.8445 32.4104 29.2044 33.4267 27.3917 33.9948C25.5791 34.5629 23.6523 34.6645 21.79 34.29C19.1978 33.8226 16.8536 32.4557 15.17 30.43C15.1156 30.3359 15.026 30.2672 14.921 30.2391C14.816 30.2109 14.7041 30.2257 14.61 30.28C13.75 30.67 12.88 31.03 12.01 31.38C11.78 31.47 11.73 31.57 11.76 31.82C12 33.93 12.23 36.04 12.47 38.15C12.57 39.06 12.68 39.97 12.79 40.9H35.14ZM16 23.07C15.53 22.26 15.11 22.14 14.37 22.58C14.08 22.75 13.81 22.95 13.53 23.14C13.25 23.33 13.06 23.43 12.78 23.23C12.6691 23.1463 12.5919 23.0255 12.5626 22.8897C12.5332 22.7539 12.5536 22.6121 12.62 22.49L12.98 21.36C13.82 18.71 13.75 18.85 15.88 17.13C16.33 16.76 16.79 16.39 17.23 16.01C17.3803 15.8964 17.4817 15.7296 17.5133 15.5437C17.5449 15.3579 17.5043 15.167 17.4 15.01C17.3254 14.865 17.2032 14.75 17.0539 14.6844C16.9046 14.6189 16.7372 14.6067 16.58 14.65C16.4051 14.7135 16.2452 14.8122 16.11 14.94C14.22 16.64 12.33 18.35 10.43 20.04C9.54674 20.8002 8.8436 21.7473 8.37144 22.8127C7.89928 23.878 7.66992 25.0351 7.69997 26.2C7.69997 29.62 7.69997 33.03 7.69997 36.44V40.09C7.69997 40.53 7.91997 40.84 8.30997 40.85C9.44997 40.85 10.59 40.85 11.77 40.85C11.77 40.6 11.77 40.38 11.71 40.16C11.57 38.96 11.43 37.77 11.3 36.57C10.98 33.8 10.67 31.02 10.35 28.24C10.2853 27.808 10.3473 27.3665 10.5283 26.969C10.7093 26.5715 11.0017 26.2349 11.37 26L12.28 25.42L16 23.07ZM32.09 23.07L32.46 23.31C33.87 24.21 35.29 25.11 36.69 26.02C37.0646 26.2549 37.3602 26.5968 37.5385 27.0015C37.7168 27.4062 37.7695 27.855 37.69 28.29C37.61 29.04 37.52 29.79 37.43 30.55C37.1166 33.35 36.7833 36.15 36.43 38.95C36.36 39.59 36.3 40.23 36.22 40.95H39.4C40.13 40.95 40.34 40.73 40.4 40.02V26.13C40.4152 24.9915 40.1793 23.8637 39.7092 22.8266C39.2391 21.7896 38.5463 20.8689 37.68 20.13L35 17.74L31.84 14.9C31.723 14.7781 31.5674 14.7004 31.3997 14.6804C31.2319 14.6603 31.0624 14.6991 30.92 14.79C30.7782 14.8593 30.666 14.9771 30.6036 15.122C30.5413 15.267 30.5329 15.4294 30.58 15.58C30.6541 15.8 30.7893 15.9943 30.97 16.14C31.71 16.77 32.46 17.38 33.22 17.98C33.842 18.4632 34.3109 19.1162 34.57 19.86C34.87 20.74 35.14 21.63 35.44 22.52C35.4965 22.6384 35.5105 22.7728 35.4796 22.9003C35.4486 23.0278 35.3746 23.1408 35.27 23.22C35.1691 23.3047 35.0416 23.3511 34.91 23.3511C34.7783 23.3511 34.6508 23.3047 34.55 23.22C34.24 23 33.93 22.77 33.6 22.58C32.91 22.14 32.43 22.32 32.05 23.07H32.09ZM27.89 14.42C26.4097 15.7183 24.4873 16.3985 22.52 16.32C21.24 16.32 19.95 16.32 18.67 16.32C18.5328 16.3222 18.3997 16.3677 18.29 16.45C18.0851 16.6282 17.8945 16.8221 17.72 17.03C17.6267 17.121 17.5668 17.2408 17.55 17.37C17.4673 18.5136 17.6448 19.6611 18.0691 20.7262C18.4935 21.7914 19.1536 22.7466 20 23.52C20.7664 24.3445 21.7733 24.9063 22.8775 25.1253C23.9817 25.3444 25.1269 25.2095 26.15 24.74C27.5388 24.0898 28.6974 23.0332 29.4724 21.71C30.2474 20.3868 30.6022 18.8594 30.49 17.33C30.4879 17.2577 30.4634 17.1879 30.42 17.13C30.13 16.77 29.84 16.43 29.55 16.08C29.5059 16.0434 29.4549 16.0162 29.4 16C29.0283 15.8908 28.6907 15.6883 28.4194 15.4117C28.148 15.1352 27.952 14.7938 27.85 14.42H27.89ZM29.46 14.8C29.81 14.45 30.14 14.14 30.46 13.8C30.5219 13.7163 30.5537 13.6141 30.55 13.51C30.55 12.39 30.55 11.27 30.55 10.15C30.5257 9.84531 30.4298 9.55063 30.27 9.29003C30.166 9.11129 30.0093 8.96916 29.8212 8.8832C29.6332 8.79724 29.4231 8.77167 29.22 8.81003C29.0429 8.87174 28.8916 8.99092 28.7901 9.14858C28.6886 9.30624 28.6428 9.49332 28.66 9.68003C28.6703 9.81231 28.6325 9.94388 28.5535 10.0505C28.4744 10.1571 28.3596 10.2315 28.23 10.26C27.86 10.35 27.59 10.09 27.56 9.62003C27.5816 8.98243 27.3495 8.36228 26.9146 7.89553C26.4797 7.42877 25.8775 7.15349 25.24 7.13003C24.29 7.05003 23.33 7.13003 22.37 7.13003C21.3551 7.08968 20.3561 7.39235 19.5343 7.98923C18.7124 8.58611 18.1156 9.44241 17.84 10.42C17.5804 11.4826 17.4893 12.5792 17.57 13.67C17.571 13.7048 17.5797 13.7388 17.5952 13.7699C17.6107 13.801 17.6328 13.8283 17.66 13.85C17.9258 13.9899 18.1549 14.1904 18.3286 14.4354C18.5024 14.6804 18.6159 14.9629 18.66 15.26C20.09 15.26 21.49 15.26 22.89 15.26C23.6568 15.2344 24.4169 15.1066 25.15 14.88C25.6835 14.7477 26.1847 14.5084 26.623 14.1767C27.0613 13.8449 27.4277 13.4276 27.7 12.95C27.7546 12.8711 27.8279 12.8069 27.9134 12.7632C27.999 12.7196 28.094 12.6979 28.19 12.7C28.2876 12.721 28.3795 12.7632 28.459 12.8237C28.5385 12.8842 28.6037 12.9615 28.65 13.05C28.7969 13.4176 28.9172 13.7952 29.01 14.18C29.0619 14.4317 29.2087 14.6537 29.42 14.8H29.46ZM20.36 25.18C20.58 26.93 20.16 28.26 18.36 28.77C19.9285 30.17 21.9575 30.9438 24.06 30.9438C26.1625 30.9438 28.1914 30.17 29.76 28.77C27.92 28.27 27.54 26.92 27.76 25.2C26.6616 25.9452 25.3641 26.3419 24.0369 26.3383C22.7096 26.3347 21.4143 25.9311 20.32 25.18H20.36ZM16.45 18.18C15.8329 18.5 15.3023 18.9645 14.9035 19.5339C14.5048 20.1033 14.2497 20.7607 14.16 21.45C14.405 21.3734 14.6558 21.3165 14.91 21.28C15.3853 21.2731 15.851 21.4136 16.2432 21.6822C16.6354 21.9508 16.9347 22.3343 17.1 22.78C17.38 23.37 17.33 23.56 16.78 23.91L12.07 26.91C11.8889 26.9844 11.7337 27.1102 11.6234 27.272C11.5132 27.4338 11.4529 27.6243 11.45 27.82C11.45 28.67 11.6 29.51 11.68 30.38L11.88 30.33L18.44 27.6C18.7106 27.5 18.942 27.3159 19.1004 27.0748C19.2588 26.8336 19.3357 26.5481 19.32 26.26C19.32 25.72 19.32 25.19 19.32 24.65C19.3076 24.4735 19.2332 24.307 19.11 24.18C18.3706 23.4413 17.762 22.5824 17.31 21.64C16.7764 20.5462 16.4702 19.3555 16.41 18.14L16.45 18.18ZM31.66 18.18C31.6576 18.2066 31.6576 18.2334 31.66 18.26C31.5539 20.5384 30.5723 22.6878 28.92 24.26C28.8464 24.3556 28.8014 24.47 28.79 24.59C28.79 25.17 28.79 25.76 28.79 26.34C28.7839 26.6161 28.8646 26.8872 29.0207 27.115C29.1767 27.3428 29.4003 27.516 29.66 27.61L36 30.23L36.32 30.34C36.41 29.6 36.48 28.9 36.57 28.2C36.616 27.9291 36.5749 27.6506 36.4528 27.4044C36.3306 27.1583 36.1336 26.9572 35.89 26.83C34.37 25.89 32.89 24.91 31.36 23.96C30.74 23.57 30.55 23.43 31 22.57C31.0608 22.463 31.1275 22.3595 31.2 22.26C31.4425 21.8153 31.8448 21.4793 32.3255 21.3196C32.8062 21.16 33.3296 21.1888 33.79 21.4H33.85C33.7666 20.7177 33.5205 20.0655 33.1325 19.4981C32.7444 18.9308 32.2257 18.465 31.62 18.14L31.66 18.18ZM16.1 29.75C17.0706 30.9029 18.2814 31.8297 19.6478 32.4654C21.0141 33.1012 22.5029 33.4306 24.01 33.4306C25.517 33.4306 27.0058 33.1012 28.3722 32.4654C29.7385 31.8297 30.9494 30.9029 31.92 29.75C31.6749 29.6588 31.4346 29.5554 31.2 29.44C31.0941 29.3677 30.9646 29.3388 30.838 29.3593C30.7115 29.3797 30.5976 29.448 30.52 29.55C28.8189 31.1168 26.609 32.0161 24.2973 32.0822C21.9856 32.1484 19.7278 31.377 17.94 29.91C17.7193 29.6558 17.4092 29.4964 17.074 29.4647C16.7388 29.4331 16.4044 29.5317 16.14 29.74C16.14 29.74 16.12 29.72 16.1 29.75Z" fill="#663300"/>
<path d="M24 21.49C24.4334 21.4654 24.8615 21.5958 25.2077 21.8577C25.554 22.1197 25.7958 22.4962 25.89 22.92C25.95 23.32 25.79 23.6 25.46 23.66C25.13 23.72 24.92 23.53 24.82 23.14C24.773 22.9646 24.664 22.8122 24.5132 22.7111C24.3624 22.6099 24.1801 22.5669 24 22.59C23.8202 22.569 23.6388 22.6129 23.4885 22.7137C23.3382 22.8146 23.2288 22.9657 23.18 23.14C23.09 23.53 22.86 23.72 22.55 23.66C22.24 23.6 22.05 23.32 22.12 22.91C22.2141 22.4889 22.4548 22.1149 22.7992 21.8548C23.1435 21.5947 23.5691 21.4654 24 21.49Z" fill="#663300"/>
<path d="M20.37 19.07L20 18.8C19.8936 18.7105 19.8267 18.5828 19.8136 18.4443C19.8005 18.3059 19.8423 18.1679 19.93 18.06C19.9662 18.004 20.0134 17.9561 20.0688 17.919C20.1242 17.8819 20.1865 17.8565 20.252 17.8443C20.3176 17.8321 20.3849 17.8335 20.4499 17.8482C20.5149 17.8629 20.5762 17.8908 20.63 17.93C20.9763 18.1551 21.3101 18.3988 21.63 18.66C21.6924 18.7086 21.7428 18.7708 21.7775 18.8419C21.8122 18.9129 21.8302 18.9909 21.8302 19.07C21.8302 19.1491 21.8122 19.2271 21.7775 19.2981C21.7428 19.3692 21.6924 19.4314 21.63 19.48C21.32 19.73 21 19.97 20.63 20.19C20.5761 20.2337 20.5136 20.2657 20.4466 20.284C20.3795 20.3022 20.3095 20.3063 20.2408 20.2959C20.1721 20.2856 20.1063 20.261 20.0477 20.2239C19.989 20.1867 19.9387 20.1377 19.9 20.08C19.8551 20.0242 19.822 19.9598 19.8026 19.8908C19.7833 19.8219 19.7781 19.7497 19.7875 19.6786C19.7968 19.6076 19.8205 19.5392 19.857 19.4775C19.8936 19.4159 19.9422 19.3623 20 19.32L20.37 19.07Z" fill="#663300"/>
<path d="M27.63 19.07L27.98 19.36C28.0807 19.4471 28.1433 19.5701 28.1545 19.7028C28.1657 19.8354 28.1246 19.9672 28.04 20.07C28.0056 20.1264 27.9599 20.1752 27.9058 20.2131C27.8517 20.2511 27.7903 20.2775 27.7255 20.2906C27.6607 20.3038 27.5939 20.3034 27.5293 20.2895C27.4647 20.2756 27.4036 20.2486 27.35 20.21C26.9984 19.9853 26.6641 19.7346 26.35 19.46C26.287 19.4071 26.2375 19.3402 26.2055 19.2645C26.1734 19.1888 26.1598 19.1066 26.1656 19.0247C26.1715 18.9427 26.1967 18.8633 26.2391 18.793C26.2816 18.7226 26.3402 18.6633 26.41 18.62C26.68 18.4 26.96 18.2 27.25 17.99C27.3083 17.9389 27.3767 17.9006 27.4507 17.8773C27.5246 17.854 27.6026 17.8464 27.6797 17.8548C27.7568 17.8633 27.8313 17.8877 27.8985 17.9264C27.9657 17.9652 28.024 18.0175 28.07 18.08C28.1124 18.1411 28.142 18.2103 28.157 18.2832C28.172 18.3561 28.172 18.4313 28.157 18.5042C28.142 18.5772 28.1124 18.6463 28.07 18.7075C28.0275 18.7686 27.9731 18.8205 27.91 18.86L27.63 19.07Z" fill="#663300"/>
<path d="M23.3401 10.58L23.9701 10.69C24.0707 10.6977 24.1672 10.7334 24.2485 10.7931C24.3299 10.8528 24.3929 10.9342 24.4304 11.0279C24.4678 11.1216 24.4783 11.2239 24.4606 11.3233C24.4429 11.4226 24.3976 11.515 24.3301 11.59C23.9001 12.19 23.4601 12.78 23.0201 13.36C22.9774 13.4171 22.9239 13.4653 22.8626 13.5017C22.8013 13.5382 22.7334 13.5622 22.6629 13.5724C22.5923 13.5826 22.5204 13.5788 22.4513 13.5613C22.3822 13.5437 22.3172 13.5127 22.2601 13.47C22.2029 13.4273 22.1548 13.3738 22.1183 13.3125C22.0819 13.2512 22.0579 13.1833 22.0477 13.1128C22.0375 13.0422 22.0412 12.9703 22.0588 12.9012C22.0764 12.8321 22.1074 12.7671 22.1501 12.71C22.3901 12.37 22.6401 12.03 22.9301 11.64L22.2801 11.54C22.1786 11.534 22.0809 11.4996 21.9981 11.4405C21.9153 11.3815 21.8509 11.3003 21.8123 11.2063C21.7736 11.1122 21.7623 11.0092 21.7796 10.909C21.7969 10.8089 21.8421 10.7156 21.9101 10.64C22.3401 10.06 22.7901 9.5 23.2401 8.94C23.281 8.881 23.3332 8.83075 23.3938 8.79219C23.4544 8.75363 23.522 8.72754 23.5928 8.71543C23.6635 8.70333 23.736 8.70546 23.8059 8.72169C23.8759 8.73793 23.9419 8.76795 24.0001 8.81C24.0625 8.85223 24.1152 8.90729 24.1546 8.97151C24.1941 9.03572 24.2194 9.1076 24.2288 9.18237C24.2383 9.25713 24.2317 9.33305 24.2095 9.40507C24.1873 9.47709 24.15 9.54354 24.1001 9.6C23.8701 9.92 23.6201 10.23 23.3401 10.58Z" fill="#663300"/>
</svg>
