<svg width="1440" height="144" viewBox="0 0 1440 144" fill="none" xmlns="http://www.w3.org/2000/svg">
<path d="M1138.32 134.064C1052.93 126.432 970.128 108.144 860.976 62.064C818.352 43.776 750.24 17.424 716.256 10.368C682.272 3.312 640.512 -0.863998 607.536 2.736C592.848 4.32 574.992 4.752 535.392 13.392C496.224 22.464 451.584 37.296 421.056 48.96C361.584 71.856 284.4 80.496 228.096 81.504C103.68 83.808 0 37.152 0 37.152V144H1440V94.032C1440 94.032 1365.84 121.968 1287.07 131.04C1208.88 139.68 1172.3 137.088 1138.32 134.064Z" fill="#FFE0C7"/>
</svg>
