<svg width="48" height="48" viewBox="0 0 48 48" fill="none" xmlns="http://www.w3.org/2000/svg">
<path d="M30.33 21.9C31.1039 19.7034 31.1665 17.3189 30.5091 15.0846C29.8517 12.8504 28.5076 10.8798 26.6674 9.45239C24.8272 8.02493 22.5843 7.21304 20.2568 7.13184C17.9292 7.05064 15.6352 7.70425 13.7 9C9.00002 12.28 8.08002 17.21 9.28002 21.82C9.32551 21.7821 9.36585 21.7384 9.40002 21.69C11.0246 19.0522 13.3421 16.9111 16.1 15.5C18.5701 14.1769 21.2379 13.2617 24 12.79C24.41 12.71 24.7 12.87 24.76 13.2C24.82 13.53 24.58 13.75 24.17 13.83C20.0169 14.4694 16.1263 16.2605 12.94 19C11.5457 20.2313 10.4337 21.7493 9.68002 23.45C9.61062 23.5901 9.57306 23.7437 9.57002 23.9C9.72002 25.26 9.85002 26.62 10.04 27.97C10.3231 29.9989 11.1879 31.9023 12.53 33.45C13.7452 34.9523 15.2308 36.214 16.91 37.17C17.7706 37.6926 18.7582 37.969 19.765 37.969C20.7719 37.969 21.7594 37.6926 22.62 37.17C23.29 36.78 23.91 36.32 24.55 35.88L24.81 35.68C24.8628 35.639 24.9233 35.6091 24.988 35.5919C25.0526 35.5747 25.1199 35.5707 25.1861 35.58C25.2523 35.5893 25.316 35.6118 25.3733 35.6462C25.4307 35.6805 25.4806 35.726 25.52 35.78C25.566 35.8266 25.6015 35.8825 25.6242 35.944C25.6468 36.0054 25.6561 36.071 25.6514 36.1363C25.6466 36.2016 25.628 36.2652 25.5967 36.3228C25.5655 36.3803 25.5223 36.4305 25.47 36.47C23.65 38 21.69 39.19 19.18 39C18.1146 38.9108 17.0859 38.5679 16.18 38C13.1607 36.3114 10.8236 33.6243 9.57002 30.4C9.52587 30.1823 9.4105 29.9855 9.2421 29.8406C9.0737 29.6958 8.86187 29.6111 8.64002 29.6C8.07847 29.5042 7.56116 29.2346 7.16105 28.8291C6.76095 28.4236 6.49825 27.9028 6.41002 27.34C6.24002 26.34 6.10002 25.26 6.01002 24.21C5.95416 23.6121 6.0948 23.0124 6.41061 22.5016C6.72642 21.9909 7.20018 21.5971 7.76002 21.38C7.81176 21.366 7.85982 21.3408 7.90089 21.3064C7.94196 21.2719 7.97506 21.229 7.99788 21.1805C8.02071 21.132 8.03272 21.0791 8.03309 21.0255C8.03346 20.9719 8.02218 20.9188 8.00002 20.87C7.50906 18.7317 7.61982 16.4992 8.32002 14.42C8.96846 12.327 10.1897 10.4572 11.8456 9.02215C13.5016 7.58714 15.526 6.64419 17.69 6.3C20.7255 5.71593 23.8693 6.32576 26.4662 8.00241C29.0631 9.67905 30.9129 12.2932 31.63 15.3C32.1186 17.3095 32.1015 19.4088 31.58 21.41C31.39 22.18 31.25 22.97 31.1 23.75C31.04 24.05 30.91 24.26 30.6 24.28C30.29 24.3 30.12 24.13 30.01 23.85C29.2793 21.8505 28.1108 20.0397 26.59 18.55C25.6235 17.5768 24.4611 16.82 23.18 16.33C23.1144 16.3064 23.054 16.27 23.0024 16.2231C22.9508 16.1761 22.9089 16.1194 22.8792 16.0563C22.8495 15.9931 22.8325 15.9247 22.8292 15.855C22.8259 15.7853 22.8364 15.7157 22.86 15.65C22.8837 15.5843 22.92 15.524 22.967 15.4724C23.0139 15.4207 23.0706 15.3789 23.1337 15.3492C23.1969 15.3194 23.2653 15.3025 23.335 15.2992C23.4047 15.2959 23.4744 15.3064 23.54 15.33C24.9346 15.8662 26.2041 16.683 27.27 17.73C28.3959 18.805 29.3414 20.0544 30.07 21.43C30.15 21.56 30.24 21.72 30.33 21.9ZM8.33002 22.33C7.94426 22.4234 7.60204 22.6459 7.36012 22.9606C7.11821 23.2753 6.99115 23.6632 7.00002 24.06C7.11002 25.13 7.25002 26.2 7.43002 27.26C7.50993 27.6305 7.71421 27.9625 8.00892 28.2008C8.30363 28.4391 8.67101 28.5694 9.05002 28.57L8.33002 22.33Z" fill="#663300"/>
<path d="M42.0001 31.15C42.0001 32.26 42.0001 33.38 42.0001 34.49C42.0377 35.7272 41.6094 36.9335 40.8001 37.87C39.6458 39.1864 38.2637 40.2839 36.7201 41.11C36.2728 41.3736 35.8122 41.6139 35.3401 41.83C35.141 41.9091 34.9192 41.9091 34.7201 41.83C32.7494 40.9692 30.9608 39.7406 29.4501 38.21C28.9402 37.6999 28.5404 37.0906 28.2755 36.4198C28.0106 35.7489 27.8863 35.0309 27.9101 34.31C27.9601 32.02 27.9101 29.72 27.9101 27.43C27.9101 26.87 27.9801 26.78 28.5101 26.59C30.5101 25.88 32.5101 25.16 34.5101 24.47C34.7837 24.3853 35.0765 24.3853 35.3501 24.47C37.3501 25.17 39.4101 25.91 41.4401 26.63C41.9201 26.8 42.0001 26.92 42.0001 27.43V31.15ZM29.0001 31.47C29.0001 32.47 29.0601 33.39 29.0001 34.34C28.9659 34.94 29.0637 35.5401 29.2866 36.0982C29.5095 36.6563 29.852 37.1587 30.2901 37.57C31.6106 38.8933 33.1543 39.9732 34.8501 40.76C34.9694 40.8045 35.1008 40.8045 35.2201 40.76C35.7201 40.49 36.2201 40.23 36.7101 39.93C38.0356 39.1811 39.2064 38.1867 40.1601 37C40.6687 36.3453 40.9433 35.5391 40.9401 34.71C40.9401 32.46 40.9401 30.22 40.9401 27.98C40.9556 27.8641 40.9272 27.7466 40.8607 27.6504C40.7941 27.5543 40.6941 27.4864 40.5801 27.46C38.8001 26.84 37.0301 26.2 35.2401 25.58C35.0609 25.5252 34.8693 25.5252 34.6901 25.58L29.2901 27.5C29.2408 27.5085 29.1937 27.5266 29.1514 27.5533C29.1092 27.58 29.0726 27.6148 29.0438 27.6557C29.015 27.6966 28.9945 27.7427 28.9836 27.7915C28.9727 27.8403 28.9715 27.8908 28.9801 27.94C29.0001 29.09 29.0001 30.28 29.0001 31.47Z" fill="#663300"/>
<path d="M20.0501 27.13C19.995 26.2609 19.995 25.3891 20.0501 24.52C20.1266 23.9756 20.3547 23.4638 20.7084 23.0429C21.0621 22.622 21.527 22.3091 22.0501 22.14C22.9829 21.75 23.9999 21.605 25.0046 21.7188C26.0092 21.8326 26.9681 22.2013 27.7901 22.79C27.853 22.8216 27.9089 22.8656 27.9543 22.9193C27.9997 22.9731 28.0337 23.0356 28.0543 23.1029C28.0749 23.1702 28.0815 23.241 28.0739 23.311C28.0663 23.381 28.0446 23.4487 28.0101 23.51C27.9318 23.6331 27.8086 23.7208 27.6666 23.7544C27.5247 23.788 27.3752 23.7649 27.2501 23.69C26.6028 23.3631 25.9347 23.0792 25.2501 22.84C24.2378 22.5859 23.167 22.7215 22.2501 23.22C21.8718 23.3729 21.5493 23.6378 21.3258 23.9792C21.1024 24.3206 20.9887 24.7221 21.0001 25.13V29.13C21.0101 29.2398 21.0101 29.3502 21.0001 29.46C20.9988 29.5292 20.9837 29.5974 20.9558 29.6606C20.9278 29.7239 20.8875 29.781 20.8372 29.8284C20.7869 29.8759 20.7277 29.9129 20.6629 29.9372C20.5981 29.9615 20.5292 29.9727 20.4601 29.97C20.3904 29.9689 20.3218 29.9535 20.2583 29.9248C20.1949 29.8961 20.138 29.8547 20.0911 29.8031C20.0443 29.7516 20.0085 29.691 19.9859 29.6251C19.9634 29.5592 19.9546 29.4894 19.9601 29.42C19.9601 28.65 19.9601 27.89 19.9601 27.13H20.0501Z" fill="#663300"/>
<path d="M18.4401 22.69C18.4401 23.19 18.1301 23.44 17.7501 23.33C17.3701 23.22 17.0601 23.1 16.7501 22.98C16.138 22.7623 15.4862 22.6791 14.8391 22.736C14.192 22.793 13.5647 22.9887 13.0001 23.31L12.2601 23.71C12.2029 23.7451 12.1391 23.768 12.0727 23.7774C12.0062 23.7868 11.9386 23.7825 11.8739 23.7647C11.8092 23.7469 11.7488 23.716 11.6966 23.6739C11.6443 23.6318 11.6013 23.5794 11.5701 23.52C11.5326 23.4615 11.5075 23.3959 11.4962 23.3273C11.485 23.2587 11.4879 23.1886 11.5047 23.1211C11.5216 23.0537 11.552 22.9905 11.5942 22.9352C11.6364 22.88 11.6895 22.834 11.7501 22.8C12.524 22.2475 13.418 21.8869 14.3586 21.7478C15.2993 21.6087 16.2595 21.6951 17.1601 22C17.4841 22.0957 17.8014 22.2126 18.1101 22.35C18.2368 22.4459 18.348 22.5605 18.4401 22.69Z" fill="#663300"/>
<path d="M21.1101 32.5C20.7301 32.6 20.3401 32.72 19.9501 32.79C19.7886 32.8246 19.6216 32.8246 19.4601 32.79C19.2135 32.7191 18.9631 32.6624 18.7101 32.62C18.3374 32.6499 17.9628 32.6499 17.5901 32.62C17.2271 32.5362 16.8862 32.376 16.5901 32.15C16.5331 32.113 16.4854 32.0632 16.4509 32.0046C16.4164 31.9461 16.3959 31.8803 16.391 31.8125C16.3862 31.7446 16.3971 31.6766 16.423 31.6137C16.4488 31.5508 16.4889 31.4948 16.5401 31.45C16.5792 31.3951 16.6295 31.3491 16.6875 31.3149C16.7456 31.2807 16.8103 31.2592 16.8772 31.2516C16.9442 31.2441 17.012 31.2507 17.0763 31.2711C17.1405 31.2915 17.1997 31.3252 17.2501 31.37C17.3922 31.4749 17.554 31.5502 17.7258 31.5914C17.8975 31.6326 18.0758 31.639 18.2501 31.61C18.7201 31.61 19.1901 31.66 19.6501 31.68C19.7197 31.69 19.7905 31.69 19.8601 31.68C20.3401 31.68 20.8601 31.68 21.3001 31.59C21.6061 31.5618 21.9062 31.4876 22.1901 31.37C22.5301 31.21 22.8201 31.22 22.9901 31.49C23.0288 31.5517 23.0545 31.6207 23.0654 31.6927C23.0763 31.7647 23.0722 31.8382 23.0535 31.9086C23.0347 31.979 23.0016 32.0447 22.9563 32.1017C22.911 32.1588 22.8544 32.2058 22.7901 32.24C22.5543 32.4104 22.2871 32.5326 22.004 32.5995C21.7208 32.6665 21.4273 32.6768 21.1401 32.63L21.1101 32.5Z" fill="#663300"/>
<path d="M23.2999 26C23.2984 25.7981 23.3478 25.5991 23.4436 25.4214C23.5394 25.2437 23.6785 25.093 23.848 24.9833C24.0175 24.8737 24.2119 24.8085 24.4133 24.794C24.6146 24.7794 24.8164 24.8159 24.9999 24.9C25.1504 24.9855 25.3171 25.0386 25.4893 25.0558C25.6616 25.073 25.8355 25.054 25.9999 25C26.0954 24.9838 26.1933 24.9889 26.2866 25.0148C26.38 25.0407 26.4664 25.0869 26.5399 25.15C26.596 25.2229 26.6342 25.3078 26.6515 25.3981C26.6689 25.4884 26.6649 25.5815 26.6399 25.67C26.5446 25.8335 26.391 25.955 26.2099 26.01C26.0837 26.0356 25.9672 26.096 25.8736 26.1843C25.7799 26.2727 25.7128 26.3855 25.6799 26.51C25.5871 26.7747 25.4038 26.9982 25.1623 27.1409C24.9208 27.2836 24.6366 27.3364 24.3599 27.29C24.0534 27.2477 23.774 27.0915 23.5775 26.8524C23.3811 26.6133 23.2819 26.3089 23.2999 26Z" fill="#663300"/>
<path d="M16.5499 26C16.5461 26.2843 16.4447 26.5588 16.2626 26.7772C16.0806 26.9957 15.8289 27.145 15.5499 27.2C15.2781 27.271 14.9897 27.24 14.7391 27.1128C14.4885 26.9857 14.2932 26.7713 14.1899 26.51C14.1484 26.3575 14.0643 26.2201 13.9474 26.1138C13.8305 26.0075 13.6856 25.9368 13.5299 25.91C13.4662 25.8973 13.4059 25.8715 13.3526 25.8343C13.2994 25.7971 13.2545 25.7493 13.2206 25.6939C13.1868 25.6384 13.1649 25.5766 13.1561 25.5122C13.1474 25.4479 13.1521 25.3824 13.1699 25.32C13.185 25.1916 13.2502 25.0743 13.3514 24.9938C13.4525 24.9132 13.5814 24.8759 13.7099 24.89C13.8309 24.8997 13.9493 24.9302 14.0599 24.98C14.1598 25.0289 14.2709 25.0501 14.3818 25.0413C14.4926 25.0325 14.599 24.994 14.6899 24.93C14.8776 24.818 15.0918 24.7581 15.3103 24.7564C15.5288 24.7547 15.7439 24.8112 15.9333 24.9202C16.1228 25.0292 16.2798 25.1866 16.3881 25.3764C16.4965 25.5662 16.5523 25.7814 16.5499 26Z" fill="#663300"/>
<path d="M19.7901 33.63C20.0401 33.63 20.2901 33.63 20.5501 33.63C20.6656 33.6532 20.7695 33.7157 20.8442 33.8069C20.9188 33.898 20.9596 34.0122 20.9596 34.13C20.9596 34.2478 20.9188 34.362 20.8442 34.4531C20.7695 34.5443 20.6656 34.6068 20.5501 34.63C20.0401 34.63 19.5501 34.63 19.0301 34.63C18.9146 34.6068 18.8107 34.5443 18.736 34.4531C18.6614 34.362 18.6206 34.2478 18.6206 34.13C18.6206 34.0122 18.6614 33.898 18.736 33.8069C18.8107 33.7157 18.9146 33.6532 19.0301 33.63H19.7901Z" fill="#663300"/>
<path d="M32.72 33.15C32.72 32.5559 32.956 31.9861 33.376 31.5661C33.7961 31.146 34.3659 30.91 34.96 30.91C35.5541 30.91 36.1238 31.146 36.5439 31.5661C36.964 31.9861 37.2 32.5559 37.2 33.15C37.2 33.7441 36.964 34.3138 36.5439 34.7339C36.1238 35.154 35.5541 35.39 34.96 35.39C34.3659 35.39 33.7961 35.154 33.376 34.7339C32.956 34.3138 32.72 33.7441 32.72 33.15ZM36.14 33.15C36.1278 32.8506 36.0041 32.5665 35.7932 32.3537C35.5822 32.1409 35.2993 32.0147 35 32C34.6877 32.0077 34.3905 32.1358 34.1706 32.3576C33.9507 32.5794 33.825 32.8777 33.82 33.19C33.8048 33.3547 33.8242 33.5209 33.8769 33.6777C33.9295 33.8346 34.0143 33.9787 34.1258 34.101C34.2373 34.2232 34.3731 34.3208 34.5245 34.3876C34.6759 34.4544 34.8395 34.4889 35.005 34.4889C35.1704 34.4889 35.3341 34.4544 35.4854 34.3876C35.6368 34.3208 35.7726 34.2232 35.8841 34.101C35.9956 33.9787 36.0804 33.8346 36.1331 33.6777C36.1857 33.5209 36.2051 33.3547 36.19 33.19L36.14 33.15Z" fill="#663300"/>
<path d="M37.9999 29.64C38.0699 29.7 38.2799 29.79 38.3499 29.94C38.3871 30.0234 38.4064 30.1137 38.4064 30.205C38.4064 30.2963 38.3871 30.3866 38.3499 30.47C38.1987 30.7013 38.0012 30.8988 37.7699 31.05C37.6871 31.0892 37.5966 31.1095 37.5049 31.1095C37.4133 31.1095 37.3228 31.0892 37.2399 31.05C37.1652 30.9956 37.102 30.927 37.0539 30.848C37.0059 30.7691 36.9739 30.6814 36.9599 30.59C36.9299 30.32 37.6299 29.65 37.9999 29.64Z" fill="#663300"/>
<path d="M38.93 33.69C38.4 33.69 38.18 33.54 38.17 33.18C38.16 32.82 38.42 32.61 39.04 32.62C39.48 32.62 39.72 32.85 39.69 33.21C39.66 33.57 39.44 33.69 38.93 33.69Z" fill="#663300"/>
<path d="M32.8399 30.52C32.8415 30.5927 32.8279 30.6648 32.7999 30.7318C32.772 30.7989 32.7303 30.8593 32.6775 30.9093C32.6247 30.9592 32.5621 30.9975 32.4936 31.0218C32.4252 31.046 32.3524 31.0556 32.2799 31.05C32.0865 30.988 31.9109 30.8802 31.7681 30.7357C31.6253 30.5911 31.5196 30.4142 31.4599 30.22C31.4529 30.1477 31.4612 30.0746 31.4842 30.0056C31.5072 29.9367 31.5444 29.8733 31.5934 29.8196C31.6424 29.7659 31.7021 29.723 31.7687 29.6938C31.8353 29.6646 31.9072 29.6497 31.9799 29.65C32.1881 29.7046 32.3778 29.8141 32.5291 29.9672C32.6804 30.1203 32.7878 30.3112 32.8399 30.52Z" fill="#663300"/>
<path d="M31.0001 33.68H30.7101C30.6289 33.6685 30.5515 33.6383 30.4839 33.5918C30.4164 33.5453 30.3605 33.4838 30.3208 33.4121C30.2811 33.3403 30.2585 33.2604 30.2549 33.1785C30.2513 33.0965 30.2668 33.0149 30.3001 32.94C30.4701 32.6 30.7801 32.62 31.0901 32.62C31.4001 32.62 31.6301 32.67 31.7501 32.96C31.7817 33.0317 31.7964 33.1097 31.7929 33.1879C31.7895 33.2662 31.7682 33.3426 31.7304 33.4113C31.6927 33.48 31.6397 33.539 31.5755 33.5839C31.5112 33.6287 31.4375 33.6582 31.3601 33.67C31.2403 33.6799 31.1199 33.6799 31.0001 33.67V33.68Z" fill="#663300"/>
<path d="M38.4499 36.15C38.4528 36.219 38.4412 36.2879 38.4161 36.3523C38.391 36.4166 38.3528 36.4751 38.3039 36.524C38.255 36.5728 38.1966 36.611 38.1322 36.6362C38.0679 36.6613 37.999 36.6728 37.9299 36.67C37.7215 36.6127 37.532 36.501 37.3809 36.3463C37.2298 36.1917 37.1224 35.9997 37.0699 35.79C37.0685 35.7205 37.0813 35.6514 37.1076 35.587C37.1339 35.5226 37.173 35.4643 37.2227 35.4155C37.2723 35.3668 37.3314 35.3288 37.3962 35.3038C37.4611 35.2787 37.5304 35.2672 37.5999 35.27C37.809 35.3239 37.9991 35.4347 38.1491 35.59C38.2991 35.7453 38.4033 35.9392 38.4499 36.15Z" fill="#663300"/>
<path d="M34.4299 29.17C34.4299 29.05 34.4299 28.9 34.4299 28.82C34.5447 28.6426 34.7127 28.506 34.9099 28.43C34.9711 28.4184 35.034 28.4202 35.0943 28.4353C35.1547 28.4504 35.211 28.4784 35.2595 28.5174C35.308 28.5563 35.3475 28.6054 35.3752 28.6611C35.4029 28.7168 35.4181 28.7778 35.4199 28.84C35.44 29.0328 35.44 29.2272 35.4199 29.42C35.4351 29.5517 35.4004 29.6843 35.3227 29.7917C35.245 29.8991 35.1298 29.9734 34.9999 30C34.8602 29.9948 34.7279 29.9357 34.631 29.835C34.534 29.7342 34.4798 29.5998 34.4799 29.46V29.21L34.4299 29.17Z" fill="#663300"/>
<path d="M32.8399 35.69C32.8399 36.11 32.2999 36.69 31.9899 36.69C31.9032 36.681 31.8194 36.6541 31.7437 36.6111C31.6679 36.5681 31.602 36.5098 31.5499 36.44C31.5126 36.3566 31.4934 36.2663 31.4934 36.175C31.4934 36.0837 31.5126 35.9934 31.5499 35.91C31.672 35.6981 31.848 35.5221 32.0599 35.4C32.1433 35.3627 32.2336 35.3435 32.3249 35.3435C32.4162 35.3435 32.5065 35.3627 32.5899 35.4C32.7199 35.42 32.7899 35.62 32.8399 35.69Z" fill="#663300"/>
<path d="M35.47 37.12C35.48 37.2297 35.48 37.3402 35.47 37.45C35.4675 37.5135 35.4522 37.5759 35.4249 37.6333C35.3976 37.6908 35.359 37.7421 35.3113 37.7841C35.2636 37.8262 35.2079 37.8582 35.1475 37.8781C35.0871 37.898 35.0233 37.9054 34.96 37.9C34.8369 37.9083 34.7154 37.8678 34.6219 37.7874C34.5283 37.7069 34.4702 37.5929 34.46 37.47C34.445 37.2769 34.445 37.083 34.46 36.89C34.4572 36.8205 34.4687 36.7512 34.4938 36.6863C34.5188 36.6214 34.5568 36.5623 34.6055 36.5127C34.6542 36.4631 34.7126 36.4239 34.777 36.3976C34.8414 36.3714 34.9104 36.3586 34.98 36.36C35.0491 36.3612 35.1173 36.3763 35.1806 36.4043C35.2439 36.4322 35.3009 36.4725 35.3484 36.5228C35.3959 36.5731 35.4329 36.6324 35.4572 36.6971C35.4815 36.7619 35.4926 36.8309 35.49 36.9C35.495 36.9732 35.495 37.0467 35.49 37.12H35.47Z" fill="#663300"/>
</svg>
